<?xml version="1.0" encoding="utf-8"?>
<!-- Generator: Adobe Illustrator 23.0.2, SVG Export Plug-In . SVG Version: 6.00 Build 0)  -->
<svg version="1.1"
	 id="svg2606" inkscape:output_extension="org.inkscape.output.svg.inkscape" inkscape:version="0.46" sodipodi:docname="Taiwan_ROC_political_division_map.svg" sodipodi:version="0.32" xmlns:cc="http://creativecommons.org/ns#" xmlns:dc="http://purl.org/dc/elements/1.1/" xmlns:inkscape="http://www.inkscape.org/namespaces/inkscape" xmlns:rdf="http://www.w3.org/1999/02/22-rdf-syntax-ns#" xmlns:sodipodi="http://sodipodi.sourceforge.net/DTD/sodipodi-0.dtd" xmlns:svg="http://www.w3.org/2000/svg"
	 xmlns="http://www.w3.org/2000/svg" xmlns:xlink="http://www.w3.org/1999/xlink" x="0px" y="0px" viewBox="0 0 850 1200"
	 style="enable-background:new 0 0 850 1200;" xml:space="preserve">
<style type="text/css">
	.st0{fill:#EEFFAA;stroke:#000000;}
	.st1{fill:#EEFFAA;stroke:#000000;stroke-miterlimit:10;}
	.st2{fill:#FF3185;stroke:#000000;stroke-miterlimit:10;}
	.st3{fill:#FFFF00;stroke:#000000;stroke-miterlimit:10;}
	.st4{fill:#5DB2ED;stroke:#000000;stroke-miterlimit:10;}
	.st5{fill:#19FF00;stroke:#000000;stroke-miterlimit:10;}
</style>
<defs>
	
	
		<inkscape:perspective  id="perspective2614" inkscape:persp3d-origin="372.04724 : 350.78739 : 1" inkscape:vp_x="0 : 526.18109 : 1" inkscape:vp_y="0 : 1000 : 0" inkscape:vp_z="744.09448 : 526.18109 : 1" sodipodi:type="inkscape:persp3d">
		</inkscape:perspective>
</defs>
<sodipodi:namedview  bordercolor="#666666" borderopacity="1.0" gridtolerance="10000" guidetolerance="10" id="base" inkscape:current-layer="layer1" inkscape:cx="631.21444" inkscape:cy="434.79035" inkscape:document-units="px" inkscape:pageopacity="0.0" inkscape:pageshadow="2" inkscape:window-height="683" inkscape:window-width="676" inkscape:window-x="66" inkscape:window-y="68" inkscape:zoom="0.24748737" objecttolerance="10" pagecolor="#ffffff" showgrid="false">
	</sodipodi:namedview>
<path id="path2462" class="st0" d="M293,1006.4l-3.5,6.2l1,0.9l1.3,0.4l2.7-0.8l0.5-1.1l3-3.2l2.9-1.8l0.4-1l-0.3-1.1l-1.1-0.5
	l-0.4-0.9l-0.9-0.7l-1.3,0.1l-2.1,1l-0.7,0.8l-0.9,0.4l-0.5,0.9L293,1006.4L293,1006.4z"/>
<path id="path2464" class="st0" d="M56,588.4v1.4V588.4L56,588.4z"/>
<path id="path2466" class="st0" d="M73.8,581.9l0.7-2.5l2-0.7l-0.9,1.4l-0.5,2.3L73.8,581.9L73.8,581.9z"/>
<path id="path2468" class="st0" d="M82.6,575l2.3-0.4l-0.5,1.8L82.6,575L82.6,575z"/>
<path id="path2470" class="st0" d="M40.1,622.6l-0.2,2.5l2.1-0.9L40.1,622.6L40.1,622.6z"/>
<path id="path2472" class="st0" d="M43.8,628.9l-4.3,2.3l-1.6-0.7l0.4,2.3l5.4-0.4l4.1-2.5l-0.4-1.3l-2.5-0.4L43.8,628.9L43.8,628.9
	z"/>
<path id="path2474" class="st0" d="M36.9,583.5l-0.6,1.2l-0.2,0.8l0.8,0.9l-1.5,1.4l0.4,1.1l1.1,0.5l0.8,0.7L38,591l-0.9,0.4
	l-0.7,2.1l0.4,1.2l-1.2,0.4h-1.3l-1.1,0.7l0.4,1L35,597l1.8,2.3v1.3l-0.5,1.1l-1,0.7l-0.7,0.9l-1,0.7l-1,0.3l-1.8-1.6l-1.3,0.4
	l-0.9,0.7l-0.6,1l-1.5,1.3l-0.6,0.9l0.9,0.5h1.3l0.6-0.8h4l0.7-0.6l0.9-0.4l2.6,0.4l1.2,0.5h1.3l1.2-0.5l-0.4-1.2l-0.7-0.9l-0.4-1
	l-0.1-1.3l1.5-1.4l-1.2-2.9l3.7-3.3l-0.4-0.9l-1-0.7l-0.2-1.2l0.6-2.1l-0.5-1.2l-0.6-0.8l-0.3-1.1l0.4-1l1-0.6h2.7l2.3-0.6l1-0.6
	l0.2-1.3l-0.7-0.6l-1.1,1l-1.1,0.3l-1.3-0.6l-2.1-2.4l0.3-1.2l-0.4-1l-1.1,0.1l-0.8,0.7l-2.2,4.1L36.9,583.5L36.9,583.5z"/>
<path id="path2476" class="st0" d="M51.7,573.1l-1,1l0.1,1.2l3,2.1l0.6,1.1l0.6-0.6l0.9-2.1l0.9-0.6l2.8,0.1l0.5,1.2v1.3l0.7,0.8
	l0.4,1l2.2,2.3L64,583l0.9,0.2l0.8-1l0.2-1.3l2.2-1.3l1.3-0.2l-0.1-1.2l-1.3-1.2l-0.5-0.8l0.8-1.4l-1.4-0.1l-1.7-3.1l-0.7-0.2
	l-0.8,0.5l-2.1-0.6l-0.3-1.1l-1.3-0.2l-1.3,0.5l-0.5,1.1l-1.3,0.3l-2.3-0.3l-1.1-0.5l-0.3-0.6L51.7,573.1L51.7,573.1z"/>
<path id="path2478" class="st0" d="M63.9,584.5l-1.4,1.9l1.8,1.7h1.3l1-0.6l0.1-1.3l1.7-2.1l-0.8-0.5h-1.3l-1.3,0.3L63.9,584.5
	L63.9,584.5z"/>
<path id="path2480" class="st0" d="M67.2,588.4l-1.2,0.5l-0.4,1l0.4,1.1l1.1,0.5h1.3l1.3-0.3l0.4-1.2l-0.6-0.9l-1.2-0.6L67.2,588.4
	L67.2,588.4z"/>
<path id="path2482" sodipodi:nodetypes="csssssssssssssssssssssssssssssssssssssssssssssssssssscsssscsssssssssssssssssssssssssssssssssssssssssssssssssssssssssssssssssssssssssscsssssssssssssssssssssssc" class="st0" d="
	M60.2,597.3l-2.9,2.5l-1.2,0.4h-1.3l0.6,1.2v1.3l-0.3,1.3l-1.8,1.5l-0.2,1.3l1,0.5l2.4-1.1l1-0.7l1.4,0.1l0.9,0.6l0.8,0.9L58,610
	l-1.3,0.2l-2.7-0.4l1.5,1.7l2.1,0.9l1.6-0.2l1.2-0.7l4,0.1l0.8,1.1l0.4,1.2l-1.3,2.1l-0.2,0.7l1.2,0.8l-0.1,1l-1.1,1.1l-1.2-0.1
	l-0.8-0.7l-1.1-0.5l-1.3,0.2l-1.6,3.4l-1.5,1.6l0.6,1.1l2.6,0.3l1.4-0.2l1.8-0.6l1.5-0.1l1.6,1.8l1.2-0.3l0.2-1.2l1.1-1l0.1-1.3
	l0.4-1.3L68,620l-0.2-1l0.9-1l0.6-1.2l4.5-3.5l1.2-0.2l2.2-2.8l0.4-1.1l1-0.8l6.2-0.2l1.9-0.9l0.8,0.6l0.3,1.3l0.6,1.2l1.1,0.7
	l1.3-0.3l1-0.5H93l0.5-0.8l-3.1-3.3l-0.8-2.9l0.4-1.1V601l-0.5-1.2l-2.4-2.6l-0.6-2.1l-0.7,0.8l-0.4,2.5l-1.3-0.2l-0.6-1.3l-0.8-0.9
	l0.4-0.8l0.7-0.5l-1.7-1.6l-1.2-0.4l-0.8,0.8l-1.7,3.1l-1-0.2l-0.9,0.3l-1.5,1.5l-0.3,1.1l-0.7,0.2l-0.1-4l1-2.1l-1.5,0.2l-0.8,0.5
	l-5.2,0.9l-0.8,0.6l0.1,1.3l0.7,1v1.3l-0.5,0.9l-1.3,0.4l-0.8,1v2.8l-0.7,0.8l-1.3-0.6l-1-0.9l0.2-1.8l-1.4-0.2l-0.2-1.3l0.7-1.2
	l0.1-0.8L60.2,597.3L60.2,597.3z"/>
<path id="path2484" class="st0" d="M49.9,610.1l-0.5,1.3l-1,0.4L48,613l0.1,2.6l1.5,0.7l0.4,0.7l0.9,0.8l0.4-0.9l-0.7-0.9l1.2-1.1
	l-0.7-0.8l-0.3-2.9l-0.9-0.7"/>
<path id="path2486" class="st0" d="M52.2,618.2v1.4l4.4,0.1l0.5-0.8l-0.7-0.9l-1.1-0.8l-0.5-0.8l-0.3,1L52.2,618.2L52.2,618.2z"/>
<path id="path2488" class="st0" d="M67.4,546.7l-1.9,3.2l0.4,1.6l1.3,0.5l1.1-1.8l1.3-1l1.6,0.3l1.3-0.6l1.1-1.1l-4.2-2.9l-1,0.1
	L67.4,546.7L67.4,546.7z"/>
<path id="path2490" class="st0" d="M-19.8,656.2l-1.4,3.2l1.4,0.9l1.6-0.4l1.4-0.9v-1.3l-2.3-1.8L-19.8,656.2L-19.8,656.2z"/>
<path id="path2492" class="st0" d="M31.8,661.2l0.9,1.9v8.7l-0.4,1.6l-1.5,0.6l0.9,1.3l5.6,0.1l0.4-0.9l-0.6-1.4l0.6-1.3l1.6-0.5
	l1.3,1.4l1.3,0.9l1.5-0.5l0.9-1H46l1.1-0.8l-0.5-1.6l-0.8-1.3l-1.6,0.6l-2,2.3l-4.5-2.7l-0.5-1.4v-3.8l-1,0.3l-1.9-0.1L31.8,661.2
	L31.8,661.2z"/>
<path id="path2494" class="st0" d="M41.7,701.6l0.3,1.9l1.6,0.1l-1-1.4L41.7,701.6L41.7,701.6z"/>
<path id="path2496" class="st0" d="M45.3,704.4l-0.5,2l-1,1.4l1.6-0.5l1.8-2.3L45.3,704.4L45.3,704.4z"/>
<path id="path2498" class="st0" d="M84.8,705.9l-0.9,1.9l0.8,1.1v1.4l1.1,1.1l0.8-0.1v-1.9l1.3-1.4l0.6-1.3l-1-0.9l-1.9-0.1
	L84.8,705.9L84.8,705.9z"/>
<path id="path2500" class="st0" d="M13.2,718.7l-3.2,1.1l-0.4,1.5l0.4,1.8l1.1,0.9v1.9l1.8,2.4l0.6,0.3l0.1-1.8l1.5-1l1.5-0.4
	l0.4-3.7l1.3-1.1l-2.5-2L13.2,718.7L13.2,718.7z"/>
<path id="path2523" class="st0" d="M765.9,189.2l1.5,0.9l1.3-0.1l0.3-1.6l1.8-0.1l1.8,0.3l0.5,1.6l1.6,1l-0.6,1l-1.6,0.6l-3.7-0.1
	l-2-1.9L765.9,189.2L765.9,189.2z"/>
<path id="path2525" class="st0" d="M627.8,899.6v2.7l2.3,1.6l0.7,2.5v2.7l1.1,1.3l2.5,0.4l2.5,3l2.5,0.7l1.8-0.4l-1.8-1.8l-0.2-2.1
	l2.9-4.1v-2.7l-0.5-2.3l-1.6-1.3l-2.7,0.2l-2.3-1.1l-5.2,0.9L627.8,899.6L627.8,899.6z"/>
<path id="path2527" sodipodi:nodetypes="csssssssssssc" class="st0" d="M657.6,1114.3l1.4,2l1.6,1.4h2.7l2.5,0.5l1.3-0.4l0.7-2
	l1.3-1.6l0.4-2.3l-2.3-1.1l-1.6-1.6l-2-0.5l-4.3-3.8l-0.7-2l0.2-2.5l2.5-0.2l-0.2-2.1l-1.4-1.4l-0.4-2.3l1.3-1.4l-1.1-1.6l-9.8,0.2
	l-2,0.7h-5.4l-1.6-1.1l-1.6,0.4v1.8l2,1.3v7.9l1.1,1.6l2.5,0.9l5,6.3h5.4l2.1,1.4L657.6,1114.3L657.6,1114.3z"/>
<g id="g4330" transform="translate(4.6145365,50.433747)">
	<path id="path2643" class="st0" d="M59.4,280.7l-0.8,0.6L58,282l-2.5-0.4l-0.9,0.5l-0.5,1v2.8l-0.5,0.9l-0.1,1.3l-0.8,0.6h-1.4
		l-0.9,0.5l0.3,1.4l0.6,0.9l-0.5,1l-0.8,0.8l-1,0.4h-0.4l0.6,1.1l2.6,0.2l0.5,1.2l1.3-0.1l2-2.7l1.1-0.3l1.2,0.3l0.6,0.8l1-0.5
		l0.6-0.9l-0.1-1.3l0.6-0.9l2.7-0.1l1.2-0.4l0.6-0.7l1.5-4.2l-0.2-1.2l-3-1.8l-0.7-0.8l-0.9-0.5l-1.3-0.3L59.4,280.7L59.4,280.7z"/>
	<path id="path2645" class="st0" d="M31.8,299.2l0.5,1.1l0.6,0.9l-0.4,0.7l1.4,0.1l0.9,0.5l0.8-0.6l-0.2-0.6l-1.4-0.1l-0.6-2.1
		L31.8,299.2L31.8,299.2z"/>
	<path id="path2647" class="st0" d="M30.4,303l-0.6,0.8l2.3,0.6l0.7-0.6L30.4,303L30.4,303z"/>
	
		<path id="path2651" sodipodi:nodetypes="csssssssssssssssssssssssscsssssssssssssssssssscssssssssssscssssssssssssssssssssscssssssssscsssssssssssssssssscsssssscsssssssssscsssssssssssscsssssssssssssscsssssssssssscssssssssssssssc" class="st0" d="
		M118.5,262.8l-0.4-1.3l-0.6-0.9v-1.4l-0.6-0.8l0.6-0.6h-1.2l0.1-0.7l-0.9-0.1l-0.7,0.2l-0.4-0.6l-1.6,1.7l-0.5-0.9l0.9-0.6
		l-0.8-0.6l-0.9,0.6l-0.6,0.8l1,0.8l0.7,1l-0.4,1.1l-1.2,0.2l-1.7,1.2l-1.2,0.2L107,262l-0.5,0.3l-0.3,0.9l0.5,0.7l0.1,1.3l1.3-1.4
		l1,0.5h1.4l-0.1,0.7H109l0.9,0.8l0.5,0.9l-0.8,0.6v1.4l-0.9-0.3l-1.2-1.7l-0.7-0.6l-0.2,0.9l0.6,0.9v0.3l-0.9,1l-0.9,0.6l-0.6,0.8
		l-0.9,0.5h-1.4l1.3,1.2l-0.4,0.5l0.6,2.4l-0.3,0.7H103l-1.7,1.4l-0.6,0.9l-8.1-1.1l-10.8-7.8l-1.2-0.3l-0.4-0.3l-0.6,0.7l-1.3,0.2
		l-2.1,2.1l-1.2,0.2l-2,3.8l2.2,1.3l1.2,0.3l-0.2-0.9l-0.7-0.8l0.9-0.5l2.8,0.1l0.5-1.1l0.9-0.6l0.7,0.8l-0.1,1.7l-0.7,0.7l-2.4,0.5
		l-0.5,1.2v1.8l0.4,0.3l0.7,1.2l0.7,2.4v2.8l0.2,0.7l1.6,0.2l0.6,0.7l-0.1,1.3l-1,0.4l-0.6-1.7l-0.5,0.9l-2.2,0.3l-0.1,2.3l-0.8,0.6
		l-4,0.1l-0.6-0.5l0.1-1.3l-0.8,1.7l-1.1-0.2l-0.3,0.9l1,0.7l0.9,0.4l1.7,2.2l1.5,1.2l0.6,1L78,299l1,0.5l0.6,1.1l1.3,0.5l1.5,0.2
		l2,1.3l0.5-0.8l1.6-0.3l0.4-1l0.7-0.6l0.6-2.4l3-4.3l0.7-0.6l0.6-0.9l0.8-0.6l0.2-0.5l1.2-0.2l0.8-0.6l1.2-0.3l0.7-0.6l0.9-0.5
		l1.3-0.1l2-0.8l7.9-0.6l1.5,0.6l1.7,1.4l0.9,0.5h1.4l2.3,0.9l2.4,2.4l-0.1,1.1l-0.6,0.8l-0.8,0.6l-0.6,0.2l1.1,0.5h1.4l1-0.4
		l0.8-0.6l1.2-0.3l0.6-0.9l2.3-0.6l0.4-1l-0.5-0.8l0.3-1l0.8-0.4l1.4,0.3l0.6-0.7l0.4-0.8l-1.4-1.7l-0.2-1l1.8-1.1l1-0.1l0.6,0.6
		l1-0.8l-0.4-0.8l0.1-0.9l0.5-0.7l-0.9-0.5h-1.4l-0.3-0.7l-0.7-0.7l-0.7-3.4v-2.2l1.5-0.9l0.4-1.1l-0.6-0.7l-2,0.7l-0.9-0.3
		l-0.5-0.9l-0.6-2.3l0.2-1.2l-0.6-0.6l-0.9-0.5l-0.2-3.4L118.5,262.8L118.5,262.8z"/>
	<path id="path2655" class="st0" d="M120.8,257.8l-1.1,0.4l0.5,0.5h1.4L120.8,257.8L120.8,257.8z"/>
	<path id="path2657" class="st0" d="M127.2,293l-0.6,0.6l1.3-0.1L127.2,293L127.2,293z"/>
</g>
<g id="g4313" transform="translate(13.831957,20.350481)">
	<path id="path2671" class="st0" d="M15.7,183.2h6l-2,3.2l-4.4-0.4L15.7,183.2L15.7,183.2z"/>
	<path id="path2673" sodipodi:nodetypes="cssssssc" class="st0" d="M30.8,185.2l-4,9.5l1.6-0.4l7.6-5.2l-4-1.6L30.8,185.2
		L30.8,185.2z"/>
	<path id="path2675" sodipodi:nodetypes="csssssssssssc" class="st0" d="M10.9,116l-0.4,4.4l0.8,4.8l-0.8,2.8l6.4,0.8l4.8-1.2
		l6.4-5.2l-2.8-3.6l-3.2,2.8l-4.4,0.8l-2.4-3.2L10.9,116L10.9,116z"/>
	<path id="path2677" class="st0" d="M30.4,118.4l1.2,2.4L30.4,118.4L30.4,118.4z"/>
	<path id="path2679" sodipodi:nodetypes="cssssssssssssc" class="st0" d="M28.8,100.5l0.4,9.5l0.8-4.4l3.2-2l4.8-0.4l3.6-2.4
		l2.8,3.2l0.8-2l-3.6-6L28.8,100.5L28.8,100.5z"/>
	<path id="path2681" sodipodi:nodetypes="csssc" class="st0" d="M35.1,79.9l-2.4,4.8l1.7,0.7l1.9-1.5L35.1,79.9L35.1,79.9z"/>
	<path id="path2683" class="st0" d="M41.1,90.6l-2.8,2.8l4-0.8L41.1,90.6L41.1,90.6z"/>
	<path id="path2685" class="st0" d="M206.1,49.8l-0.1,1.5l-0.8,0.9l-0.4,1.2l1.2,0.8l4.1-1.3l1.5-2.2l1.2,0.3l1.3-0.4l-0.6-1.1
		L212,49l-2-1.8l-1.1-0.2l-0.7,1.7l-1,1.2L206.1,49.8L206.1,49.8z"/>
	<path id="path2687" class="st0" d="M202.9,45.5l-2.4,2.1l0.2,0.7l4.2,0.3l-0.2-1.2L202.9,45.5L202.9,45.5z"/>
</g>
<g id="g4342" transform="translate(920.81618,114.6225)">
	<path id="path4338" class="st0" d="M-718.9,173l-0.5,2.5l1.4,1.4l1.6,0.7V175l-1.3-1.4L-718.9,173L-718.9,173z"/>
	<path id="path4340" class="st0" d="M-711.9,177.3l-1.3,2.1l1.8,1.1l1.8-1.3l-1.3-1.4L-711.9,177.3L-711.9,177.3z"/>
</g>
<path id="path4401" class="st0" d="M41.9,938.8l-1.4,4.3l3.2,2.9l3.9-1.8l1.8-3.9l-3.2-2.1L41.9,938.8L41.9,938.8z"/>
<g id="g4418" transform="translate(84.886708,7.5966231)">
	<path id="path4403" class="st0" d="M-50.5,1004.9l0.4,4.6l3.6-2.1L-50.5,1004.9L-50.5,1004.9z"/>
	<path id="path4405" sodipodi:nodetypes="cssssssc" class="st0" d="M-31.6,997.4l-4.6,0.7v5.4l2.9,3.9h2.5l1.8-3.9l0.7-4.6
		L-31.6,997.4L-31.6,997.4z"/>
</g>
<path id="path2421" sodipodi:nodetypes="cssssssssssssssssssssssssssssssssssc" class="st1" d="M302.5,630.6l0.5,3.3l3,3l-2,4.5
	l10.1,1.5l1,2.8l2,2.8l2.5,1.3l2.5-1.5l1.3-2.5l4.5-3.5l2,1.8l4.5,1.5l0.8-2.5l3.5-4.3l-2-2l-0.8-3l-3-0.8l-1.3-2.5l-2.3-1.5l-2.8,1
	l-2-1.8l-1.8-2.5l-2.5-1.3l-3,0.8l-7.1,5.1l-3-0.8L302.5,630.6L302.5,630.6z"/>
<path id="path2531" class="st1" d="M629.5,92.2l-1.3,2.7l-1.3,1.3l-0.4,0.7l-1.3,1.4v2.7l-1.8,1.1l-0.4,2.3l0.7,2.3l1.8,1.3l5.7,0.7
	l3.6,3.4l1.4,2.7l0.2,8.2l-2.7,3.7l-1.8,1.6l-0.9,2l0.5,5.2l1.1,2.1l2.1-0.2l2-1.1l1.3-1.8l1.3-0.2l2.9,1.3l1.6,1.3l0.7,2v2.7
	l1.3,2.1l2.3,1.6l2.5,0.2l1.1,4.3l3.8,2.5l10,1.1l2.1-0.9h2.9l0.2-1.8l-4.8-2.3l-0.4-2.5l0.2-2.1l-1.3-4.1v-2.3l1.3-2l1.8-1.1l5,0.4
	l1.6-1.1l2.1-0.5l6.8,0.4l0.5-1.4l-1.6-0.7l-2.3,0.7l-3.9-1.8l-4.8-3.6l-0.9-2l1.3-1.6l-0.4-2l-1.4-1.4l1.1-1.3l2.3-4.8l-0.5-4.6
	l-7.7-6.6l0.5-2.3l1.4-1.6l-0.5-1.8l-2.9-2.5l-1.1-1.6l-0.2-5.2l-2.9-2.9v-2.7l0.7-2V77l-4.6,0.4l-2-3.6l-1.4-1.6l-2.5,3.9l-2,0.9
	l-0.9,2l-3.8,2.1l-0.9,2.3l-1.6,1.1l-2.5,0.2l-2,0.9l-3,3.6l-0.9,2.3L629.5,92.2L629.5,92.2z"/>
<path id="path2417" sodipodi:nodetypes="csssssssssssssssssssssssssssssssssssssssssssssssssssssssssssssc" class="st1" d="
	M366.9,396.8l-2,7.1v3.8l-5.1,10.4l1.8,3l2.8,1l3.5,4.5l2.8,1l2,1.8l3,0.8l5.8-1l1.3,3.3l3.3-0.3l1.8-2l2.5-1.3l6.3-1.5l2.5-1.3
	l0.8-3v-3.3l-2.8-1l-1.8-2.3l2.3-1.5l3.3,0.5l2.8,1.3h7.1l6.3-1.5l1.8-2h7.6l0.3-11.1l-2.3-1.5l-2.8-1l-4.3-3.3h-3.5l-4,4.8
	l-2.3,1.5l-6.1,1.8l-3.5,0.3l-2.5-1.3l-1.5-2.3h-7.1l-2.3-1.5h-3l-2.5,1.8l-5.6-1.8l-2.8-1.8L366.9,396.8L366.9,396.8z"/>
<path id="path3635" sodipodi:nodetypes="ccssssssssscssssssssssssssssssssssssssscssssssssssssssssssssssssssscssssssssssssssssssssssscsss" class="st2" d="
	M726.4,97.4l0.1-1.2l-1.1-1.1l0.5-3.4l-1.8,0.1l-2.4,1.5l-2.2-2l-1.9-0.2l-0.9-0.6v-2.1l-1.6-0.4l-0.8,1.4l-1.5,0.4l-0.4-1.5h-1.3
	l0.5,1.5l1.4,2l-1.8,2.3l-2.8,2l-1.3,0.1l2.3-2.2l-0.8-1.4v-3.2l-1.5-0.1l-1.4-0.8l-1.8-0.3l-2-2h-3.9l-1.1-0.8l0.3-1.4l-0.4-0.9
	l-1.8,1.2l-2,0.7l-1.1,1.6l-2.3,0.5l-1.3,1.6l-4.1,1.8l-2.5,0.2l-2,0.7l-1.8,1.3l-4.8,0.5v2.7l1.1,2l2.3,0.7l1.4,1.6l0.2,2.5l3,6.8
	l2.3,1.6l1.6,2.1l2.3,0.5l1.4-1.3v2l1.6,1.8l7,1.8l5.4,4.6l5.2,0.4l4.6-2.3l2.5-0.2l1.1-1.8l0.7-2.1l-4.6-4.5v-4.8l-0.5-2.1l2.3-0.5
	l2.9-3l2.5,0.5l1.8,1.3l0.9,0.2l1.8-2.9l1.4-1.4L726.4,97.4L726.4,97.4z"/>
<path id="path2861" sodipodi:nodetypes="csssssssssscssssscssssssssssscssscsssssssscssssssssssssssssscssssscssssssscscsssssssssssssssssssssssccssssssssssssssssssssssscssssssssscssscssssssssscsssssssssssscsssssssssscsssssssssscsssssssssssssssssssssssssssssssscssssssssscsssssssssssssssssscsssssssssssssssssscsssssssssscssssssssssssscssssssssssssssscsssssssssssssssssssssssssssssssssssscsssssssssssssssssssscsssssssssssssssssssssssssssssssssssssscsssssssssssssssssssssssssssssssssssssssssssssssssssssssssssssssssssssssssscsssssssc" class="st3" d="
	M454.6,1041l-3,1l-2,1.8l-3.3,1.3l-2.8-4.8l-3-0.8h-4l-1.3-2.8l-2.8-1l-2.3-1.5l-4.3,0.3l-0.5-2.3l0.8-3.3l1.8-1l-2.8-1l-1-2.5
	l-4.8-2.8l1.8-2.3l2.5-1.3l-0.3-7.6l-2.5-1.5l-1.3-2.5h-2.8l-3.8-4l-3.5-1.8l4.8-14.6l6.6-1l1.3-2.8l-0.8-3.3l-2.8-2l-2.5-5.3
	l-4-2.5l-0.3-3l-1-3l4.3-3.3v-3.8l-4-8.1l-0.5-4.3l-1.8-1l-1-3l0.5-3.5l2.8-5.1l-1.3-2.8l1.5-2.3l1-2.8l-0.3-3.5l1-2.5l2-2l0.8-3
	l1.8-2l0.3-1l4-5.6l0.3-3.5l1.8-2.3l0.3-2.5l3.3,0.5l3.5-1.8l6.1-1.3l3-6.3l11.1-0.5l2-2.3l0.3-3.5l1.8-2l0.5-9.9l2-2l-1-2.3v-3.8
	l-1-3.3l-2.5-1.3l-3.3-0.3l-2.8-2.5l-0.8-1.5l-1-8.3l-3.8-2.5l-2.3,0.8l-0.3-1.3l-2.5-1.3l-1-0.3h-3.3l-1.5,2.3l-5.1,2.5l-1.8,2.3
	l-2.8,1.5l-2.8-1.5l-6.3-7.6l-8.6-5.3h-3.8l-3,0.8l-3.3,4.8l-3,0.8l-1,1h-2.8l-2.8-1.3v-3.8l-1.8-2l-3-1.3l-3,0.8l-2.8,2l-3.5,0.3
	l-6.6,4.5l-1.3,0.5l-4,3.3l-0.3,1.3l-2.5,3.3l-2.3,1.8l-3.5,0.3l-6.1-1.5l-2.8,1.3h-3.8l-1.5-2.3l-4.5-0.3l-1.8-0.8l-2.5,1.3
	l-1.5,9.8l-1.3,2.5l-0.5,3.3l-1.3,2.8l0.3,15.2l-0.8,1.3l0.3,4.5l-1.8,6.8l-1.8,2.3l-2,6.1l-0.3,18.2l3.5,4.3l-2.8,16.4l-1.3,2.8
	l-2.5,2.2l-0.2,1.8l-0.8,1.1l-0.1,3.8l-0.5,1.3l0.8,1.8l0.1,9.1l2.9,0.3l2,1.9l-0.1,1.8l-0.9,0.3l1.8,2.4l5,3.7l0.9,1.3l1.4,0.6
	l0.6,0.1l-0.2,0l0.2,0.4l3,1.3l1.2,1.3l1.5,1l2.9,1l1.1,1l1.5,0.8l1,0.9l1.7,0.8l1.1,1l9.6,5.2l1.1,1.4l1.7,0.5l10.8,8.7l0.9,1.3
	l2,5.4l-0.4,0.8l5.4,3.7l5.8,7.3l0.5,1.5v4.8l1.8,2.9l0.8,3.4l-0.1,1.8l-0.5,1.5l0.1,1.5l4,3.4l0.9,1.3l1.3,1l0.8,1.3l1,3.5l3.3,3.4
	l-0.9,1.8v1.9l0.4,1.8l1.2,1.3l1.6,4.9l0.1,5.6l1,3.3v1.9l0.7,1.3l0.5,2.2l1.3,1.1l0.8,1.3l0.3,1.8l1.4,1.4l0.3,3.6l0.8,1.3
	l-0.1,1.9l-0.8,1.3l-5.2,1.5l0.3,1.7l1.8,0.4l0.5,1.3l-0.1,0.6l0.4,1.6l0.6,1.3l-0.6,1.3l-0.9,1l-2.5,1.5l-0.3,1.6l1,1.2l-3.8,3.5
	v3.7l1.5,0.9v1.9l1.3,1.1l-0.4,1.5l3.9,3.4l0.4,1.4l1.3,1.3l0.8,1.3l0.5,2.5l-0.9,3l0.1,5.9l-1.1,2.7l0.9,1.1l1.8,0.3l0.9,3.3l1,1.7
	l3.9,0.4l1.5-2.4l1.1-0.9l0.3-1.7l-0.8-3.2l0.6-1.4l1.4-0.6l2-2.2l1.3-0.6h1.9l0.5,1.4l4.2,2.9l0.5,0.1l2.3-0.1l1.6,0.4l0.6,1.3
	l1.5,0.4l1.4,0.9l1.9,0.6l1.9,0.1l3.8,3.8l0.1,1.8l1.9,0.6l0.9,0.8l0.6,1.3l0.1,1.8l2.7,2.5h1.9l1.3-0.9l-0.3-1.7l-1-0.9l-0.4-1.6
	l0.1-1.8l-0.5-1.4l-4.9-7.5v-7.3l0.5-1.4l-0.6-1.4l0.5-3l1-0.4l0.1-1.7l3.4-0.5l1.7-0.6l0.6-1.3l1.5-0.4l1.3-1l0.5-1.5l0.1-1.8
	l0.9-1l1.8-0.1l0.4-3.4l3.7-2.4l0.4-1.4l-2-2.5l-0.1-9.3l-1.2-1.7v-1.9l2.7-4.5l1-1.1v-1.5l-1.5-0.6l-2-2.2l-0.6-1.6l-0.3-4.8
	l0.3-0.7l0.9-0.1l0.5-0.6l0.7-0.5l0.3-0.7l-0.9-1.4l0.1-3.7l-0.8-1.3l0.3-0.6l0.5-0.6l0.3-0.6l0.2-0.8l-0.2-0.8v-1.9l-0.3-1
	l-0.4-0.6l0.1-1.1l-0.6-0.8l-0.3-0.8l0.2-1.6l1.4-1.2l0.4-0.6l0.2-0.7l0.1-1.8l-0.3-0.8v-0.7l0.2-0.5l-0.9-1l0.8-3.3l1-1.1l0.5-1.4
	l-1-1.2l-0.2-0.9"/>
<path id="path3699" sodipodi:nodetypes="cssssssssssssssssssssssssscssssssssssssssssssssssssscssssssssssssssscsssssssssssssssssssssssssssssscssssssssssssssssssssssssssssssscssssssssssssssssssssssscsssssssssssssssssscssssssssssssssssscssssssssssssssssscsssssssssssssssssssssscssssssssssssssssssssssssssssssssssscssssssssssssssssssscsssssssssssssssssssssssssssssssssssssssssssssssssssssssssssssssssssssssssssssscssssssssssssssssssssssssssscssssssssssssssssssssssscssscssssssssssssssssssssssssssssssssssssssssssssssssssssssssssssssssssssssssssssssc" class="st2" d="
	M775.2,145.2l-3.7-0.7l-2.5,0.2l-6.3,2.3l-5.4,0.4l-6.8,4.8l-1.4,1.6h-2.9l-2.3-0.9l-5.2-0.4l-1.8,1.4l-0.5,2.1l-0.9,1.8l4.1,5.9
	l-1.4,4.3l-5.9,3.9l-5.4-0.4l-2.3,0.4l-3,2.5l-2.5,3.2l0.5,2.3l-0.2,2.1l-1.4,1.8l-0.2,2.1l0.2,1.3l-2.5,0.5l-1.8,0.9l-7.5-1.1
	l-2.3,0.4l-2,1.1l-2.7,3.2l-4.8,2.6l-0.5,1.7l-1.8,1.6l-1.1,1.8l-2.1,0.7l-0.7,2l-1.6-1.8l-3.6,1.8l-10.5,1.3l1.4,1.3l-0.5,2.1
	l-2.3,1.8l-2.5-0.7l-1.8,1.1l-2.1,0.5l-0.9,2l0.2,2.5l-0.4,2.3l-2,1.6l0.4,2.5l1.4,1.4l0.7,2.1v2.7l-1.4,4.3l-2.3,0.4l-1.6,1.3
	l-1.1,1.6l-2.1,0.7l-2.7,0.2l-5.9,3.2l-0.5,2.5l-5.2,3.4l-4.6,0.7l-2.3,1.4l-4.8-0.3l-1.5-0.6l-0.5-5l-2-1.4l-1.4-2l-2.5-0.7
	l-0.2-1.8L619,234l0.5-2l-3.2-3l-2-5v-1.1l-0.9-1.8l-0.4-2.3l1.1-2l3.2-2.7l1.1-1.6l1.6-1.1v-2.7l-2.3-0.7l-0.9-2.5l-0.2-2.5
	l-1.6-1.8l-1.6-0.9l-2.9-2.9l-0.7-2l-1.4-1.4l-0.4-0.9l-1.3-0.7l-5.4,0.4l-2,1.1l-2.7,0.2l-2.9-0.7l-1.8-1.1l-1.6-1.6L589,192
	l-2.5-0.4l0.2-2.1l4.6-0.9l1.6-1.3l-2.5-1.6l-0.2-0.2l-0.4-2.1l1.3-1.6l-3.4-5.2l-4.5-2.7l-0.9-4.3l0.9-2l1.3-1.4l2.1-1.4l-1.6-1.3
	l-2.1-0.2l-1.3-2.3l0.9-2l1.4-1.4l0.5-5l-1.1-2l0.5-2.1l1.8-0.9l11.3,0.4l2.9-2l2-3.6l2.1-0.7l1.6-1.1l-0.2-2.1l-2.1-1.6l2-0.7
	l2-1.3l0.9-1.6l-2.3-1.6l-1.3-1.4l-0.4-2.3l0.9-1.8v-0.7l-0.5-2.3l-1.8-2.1l-1.3-0.9h-5.4L591,119l-2-1.8l0.5-3.6l-9.3-4.5l-5-0.5
	L574,107l-1.3-0.4l-1.8-2.5l1-1.4l2.4-2.3l12-0.1l1.3-0.9l5.2-1.6l4.2-2.8l1.5-0.4l2.8-1.7l1.6-0.5l3.7-3.5l0.6-2.4l1.1-1h1.9
	l5.8,3.8l2.3,2.3l0.7,1.8l0.1,1.8l2,2.7l0.3,1.6l0.8,1.7l0.3,1.6l0.9-0.8l-0.3-7.6l-2.2-4.4l-1-1.3l-1.4-1l-1.5-2.6l-3.5-1.7
	l-1.9-0.1l-3.4-3.2l-0.3-1.1l1.1,0.1l1.9-0.5l2-3.9l0.3-1.9l2.1-2.2l1.3-0.8l0.9-1.3l0.3-1.9l1.3-2.5l0.4-1.5l1-1.1l0.1-1.8l1.3-1
	l3.7,0.5l0.6-0.1l3.5-7.4l1.7-0.5l1.4-1l3.4-0.9l1.4-1.1l0.3-1.8l0.6-0.6l0.6,1.6l5.1-0.8l1.1-0.8v-1.9l1.1-0.8l1.9,2h6.1l0.5-1.5
	l1-1.1l1.3-0.2l0.4,0.1l1.3,0.8l1,1.1l1.4,0.9h1.9l1.4,0.8l1.8,2.3l3.2,1l3.7,5.2l1.1,1l0.7,1.3l0.4,1.8l-0.5,3.8l2,2L678,65h2
	l0.6,1.3l-1.3,1.3l0.3,1.3l4.9,5.1l6.3-0.4l4.5-3.9l0.4,1.1l-1.3,1.1l-1.4,0.8l-1,1.1l1.1,1l0.3,0.8l-2.9,1.4l-0.7,1.5l0.5,1.3
	l1.6,1.1l1.5,0.5l2.9,2.1l-1.5,1.1l-2,0.7l-1.1,1.6l-2.3,0.5l-1.3,1.6l-4.1,1.8l-2.5,0.2l-2,0.7l-1.8,1.3l-4.8,0.5v2.7l1.1,2
	l2.3,0.7l1.4,1.6l0.2,2.5l3,6.8l2.3,1.6l1.6,2.1l2.3,0.5l1.4-1.3v2l1.6,1.8l7,1.8l5.4,4.6l5.2,0.4l4.6-2.3l2.5-0.2l1.1-1.8l0.7-2.1
	l-4.6-4.5v-4.8l-0.5-2.1l2.3-0.5l2.9-3l2.5,0.5l1.8,1.3l0.9,0.2l1.8-2.9l1.4-1.4l0.9-2.1l0-1.2l1.8,0l1.6-0.6h1.9l-0.6,0.6l-0.8,1.3
	l-0.4,1.6l1,1.3h1.6l1.3-1.3l1.4-0.8l2.9,0.9l4.4,0.1l1.4,0.6l1.5-0.6l5.9,1.3h1.9l3.4-1.2l1-1l1.7-0.4l1.8,0.1v1.9l-1.3,0.8
	l-0.8,1.3l0.6,0.9l1,0.9l0.6,1.3l-0.4,1.5l-1.5,1l-1.5,4.5l1.3,3l4.2,4.2l0.3,0.6l-1.4,1l0.6,0.8v5.7l0.4,1.4l4.9,4l4,0.4l1.7-1.1
	l0.8-0.8l1.8-0.1l1.5,0.3l0.9,1l1.4,0.5l1.2,2.2l1.1-1l1.4-0.1l1.9,2l-0.1,1.5l-0.7,1.4l-1.9,0.2l-0.8,1.3l-2.8,1.3l-0.8,1.1
	l-1.8,0.1l-0.8,1.5L775.2,145.2L775.2,145.2z"/>
<path id="path3690" sodipodi:nodetypes="csssssssssssssssssssssssscsssssscsssssssssssssscsssssssssssssssssscsssssssssssssssssssssssssssscsssssssssssssssssssssssssssssssssssssscsssscsssssssssssssssssssssssssssssssssssssssssssssssssssssssssssssssssssssssssssssssssssscsssssssssssscssssssssssssscsssssssssssscssssssssssssssscsssssssssssssssssssssssssssssssssssscssssssssssssssssssssssssscssssssssssssssssssssssssscssssssssssssssscssssssssssssssssssssssssssssssc" class="st2" d="
	M629.2,246.6l-0.5,1.2l-1.6,0.5l-3.5,0.3l-1.3,0.8l-1.8,2.4l-0.6,5.1l-2.3,3l-0.4,1.5l-0.6,1.3l-0.4,1.5l-3.4,5.3l-0.3,1.6h-1.8
	l-1.4,0.6l-1.1,0.9l-0.4,0.7l-0.9,0.9l0.1,0.6l1.1,0.8l0.6,1.4l0.1,1.8l0.5,1.4l-1.3,1.1l-0.5,0.3l-0.5,0.8L606,283l-1.4,1.5
	l-0.4,1.6l0.6,1.3l0.1,7.3l-0.8,1.8l-1.1,1.4l-1.4,1l-1.6,2.5l-1.8,1.4l-0.5,1.3l-1.4-0.1l-3.4,4.9l-1.3,0.8l-1.9-0.4l-1.4,2.8
	l-1.4,0.8l-1.1,2.9l-0.9,1.1l-1.5,1.3l-1.3,2.5l0.1,1.6l-0.7,1l1.4,1.7l0.9,1.8l0.5,2.1l-0.9,7.1l2.7,2.7l2,0.7h4.8l4.1,7l1.8,0.9
	l2.7-0.4l1.3-1.6l1.6-1.3l2.3-0.4l1.8-0.9l7.1-0.9l2.1,1.1l1.1,1.8l1.6,1.1l1.3,2.1l12,7.7h8.1l3,1.3l4,0.5l8.1,5.6l8.3,1l3-0.8
	l-3-2.5l0.8-3l3.3-0.8l2.3-1.5l2.3,1l2-1.8l-0.8-1.5l-2-1.8l0.3-3.3l2-0.8l4.3,3.8l4.8,1.5l4.5,3.5l9.1,3.8l7.3,0.5l8.1,4l4.1,0.5
	l-0.2-4l-0.8-1.3l0.1-3.7l2.5-4.8l0.4-1.5l1.5-2.5l0.5-10.9l0.5-1.6l0.9-1.2v-2.1l1-3.5l1.8-2.4l0.5-1.8l2.7-1.6l1-1.2l1.3-2.6
	l0.1-1.8l4.5-4.3l4.6-1.9h1.9l0.5-0.3l-1.4-0.8l-1-1L740,307v-1.9l-2.5-1.5l-0.5-4.9l1.8-1.1l0.9-1.3l3.3-0.6l2.8-1.8l1.7-0.4
	l0.5-1.7l-0.1-1.5l-0.6-1.8l-0.1-1.8l-0.8-1.1l-0.3-3.5l0.8-1.1l-0.9-1.4l0.7-1.5h1.9l-0.3-1.4l-1-0.9l-0.3-0.5l1.5-0.7l-1.3,0.3
	l-1.8-0.7l-0.1-1.3l-2.4-2.2l0.4-1.6l1.8-0.1l1.5,0.9l0.3,1.8l1.8-0.1l1.5-0.8l-3.7-3.7l-3-1l-0.4-0.8l-0.5-0.2l-1.6-2.3l-0.1-1.3
	l-3.7-9.1l-0.1-3.8l-0.8-1.1l0.4-0.6v-2l-0.5-1.7l0.5-10.2l-2.9-3.2l-0.9-1.5v-1.7l-1.4-1.6l-0.6-3.4l0.1-1.8l-1-1l0.5-14l0.7-2.2
	V201l1.3-2.8l-0.3-3.7l1-3l0.1-1.8l2.4-5.2l0.3-1.8l1.3-2.2l1.5-0.8l1-2.9l0.9-1.1l1.4-0.5l3.8-4.4l1.3-0.6l3.2-3.7l0.3-3.5l0.5-1.5
	l2.8-1.6l1.5-0.4l1.5-2.2l1.2-0.9l1.2-0.6l2.5-3.5l0.3-1.9l1.8-1l1.8-0.3l1.2-0.5l1.1-1.1l1.7-0.3l1.3-0.8l1.9-0.1l2.7-1.2l-3.6-0.7
	l-2.5,0.2l-6.3,2.3l-5.4,0.4l-6.8,4.8l-1.4,1.6h-2.9l-2.3-0.9l-5.2-0.4l-1.8,1.4l-0.5,2.1l-0.9,1.8l4.1,5.9l-1.4,4.3l-5.9,3.9
	l-5.4-0.4l-2.3,0.4l-3,2.5l-2.5,3.2l0.5,2.3l-0.2,2.1l-1.4,1.8l-0.2,2.1l0.2,1.3l-2.5,0.5l-1.8,0.9l-7.5-1.1l-2.3,0.4l-2,1.1
	l-2.7,3.2l-4.8,2.6l-0.5,1.7l-1.8,1.6l-1.1,1.8l-2.1,0.7l-0.7,2l-1.6-1.8l-3.6,1.8l-10.5,1.3l1.4,1.3l-0.5,2.1l-2.3,1.8l-2.5-0.7
	l-1.8,1.1l-2.1,0.5l-0.9,2l0.2,2.5l-0.4,2.3l-2,1.6l0.4,2.5l1.4,1.4l0.7,2.1v2.7l-1.4,4.3l-2.3,0.4l-1.6,1.3l-1.1,1.6l-2.1,0.7
	l-2.7,0.2l-5.9,3.2l-0.5,2.5l-5.2,3.4l-4.6,0.7l-2.3,1.4L629.2,246.6L629.2,246.6z"/>
<path id="path2707" sodipodi:nodetypes="csssssssssssssssssssssssscssssssssssssssssscssssssssssscssssssssssssssssssssssssssssssssssscssssssssssssssssscssssssssssssssscsssssssssssssssssssssssssssscssscssssssssssssssssssssssssssssssssscssssssssssssssssssssssssssssscsssscssssssssssssssssscssssssssssssssssscsssssssssssssssssscssssssssssssssssssssssscsssssssssssssssssssssssssssssssc" class="st2" d="
	M629.3,246.6l-0.5,1.2l-1.6,0.5l-3.5,0.3l-1.3,0.8l-1.8,2.4l-0.6,5.1l-2.3,3l-0.4,1.5l-0.6,1.3l-0.4,1.5l-3.4,5.3l-0.3,1.6h-1.8
	l-1.4,0.6l-1.1,0.9l-1.5,1.9l-0.8,0.5l-1.8,0.4l-3.7-0.5l-1.5-0.9l-1.3-1.9h-0.9l-0.8-1l-0.5-1.5l-1.4-0.5V265l0.8-1.4l0.4-1.8
	l-1.5-0.8l-1.6-0.3l-1.3-0.8l-0.1-3.8l1-1l0.1-1.9l0.5-1.5l-0.3-1.9l-1.6-0.8h-1.9l-0.6-1.3l-0.3-1.8l-0.8-1.3l-1.1-0.9l-2.3-2.9
	l-2.9-1.4l-3,1l-1.4-0.5v-3.8l1.1-1.1l0.6-1.3v-3.8l-2.1-0.4l0.1-4.4l0.5-1.4l0.9-1.3l0.4-1.6l-1.3-1.3l-0.6-1.5l-1.8-0.4l-1.3-1.3
	l-1.4-0.5l-1.8-0.1l-0.5-0.8H569l-1.6-0.9l-1-1.3l-1.5-0.9l-0.4-0.6l-0.1-1.1l-0.9-2.4l-1.5-0.6l-2.1-0.4v-1.9l-1.5-0.5l-3.9,1.8
	h-1.6l-5.7-4.5l-1.4-0.6l-1.1-1.1l-2-0.8v-1.4l-1.9-0.3l-1.8-0.6l-3.5-2.8l-0.6-0.9l-3-1.9l0.4-1.6l1.8-2.8l-0.5-5.6l-1.4-1l-11.7-1
	l-0.8-1.5l-0.3-1.9l1-0.9l-1.4-0.8l-1.3,0.9l-1.6,0.6l-1.9,0.1l-1.6-1.3l-2-0.6h-1.9l-1.3-1.4l-3-1.1l0.1-3.7l0.6-1.5l-1.1-3
	l-0.1-1.8l-1.8-0.1l-2.1-2.1l-3.7-0.3l-4.3,1.3l-2.3-1.5l-4.3,2.5l-3.1-0.8l0.5-0.8l1.3-1l3-4l0.6-1.4l1.3-1.3l1.3-0.8l1.8-1.9v-3.7
	l-0.9-1.3l0.1-1.8l3-3.8l1-2.9l1.1-0.9l2.4-3.5l4.7-4.1l3.9-1.8l1.6-0.3l1.2-1.2l1.5-0.5l2.5-1.6l1.3-1.4l1.7-1l1.8-0.5l2.8-2.2
	l1.5-0.6h2l12.1-3.2l1.5-1.3l3.5-1.6l3.7-3.7l1.7-1l2.1-0.1l8.3-3.4h1.9l1-1l3.5-0.8l1.5,0.5l2.5,2l2.4,0.1l0.8,1.9l1.3,1.4l1.3,0.4
	l1.3,1.6l5,0.5l9.3,4.5l-0.5,3.6l2,1.8l5.2,1.3h5.4l1.3,0.9l1.8,2.1l0.5,2.3v0.7l-0.9,1.8l0.4,2.3l1.3,1.4l2.3,1.6l-0.9,1.6l-2,1.3
	l-2,0.7l2.1,1.6l0.2,2.1l-1.6,1.1l-2.1,0.7l-2,3.6l-2.9,2l-11.3-0.4l-1.8,0.9l-0.5,2.1l1.1,2l-0.5,5l-1.4,1.4l-0.9,2l1.3,2.3
	l2.1,0.2l1.6,1.3l-2.1,1.4l-1.3,1.4l-0.9,2l0.9,4.3l4.5,2.7l3.4,5.2l-1.3,1.6l0.4,2.1l2.7,1.8l-1.6,1.3l-4.6,0.9l-0.2,2.1l2.5,0.4
	l1.6-1.3l1.6,1.6l1.8,1.1l2.9,0.7l2.7-0.2l2-1.1l5.4-0.4l1.3,0.7l0.4,0.9l1.4,1.4l0.7,2l2.9,2.9l1.6,0.9l1.6,1.8l0.2,2.5l0.9,2.5
	l2.3,0.7v2.7l-1.6,1.1l-1.1,1.6l-3.2,2.7l-1.1,2l0.4,2.3l0.9,1.8v1.1l2,5l3.2,3l-0.5,2l2.5,1.1l0.2,1.8l2.5,0.7l1.4,2l2,1.4l0.5,5
	L629.3,246.6L629.3,246.6z"/>
<path id="path2732" sodipodi:nodetypes="csssssssssssscsssssssssssssssscsssssssssssssssssscssssssssssssssssssscssssssscscsssssssssssssssssscc" class="st2" d="
	M451.5,226.7l0.2,1.1l1.3,0.6h2l1.4-0.5l1.1-0.9l1.4,0.5l1.9,2.3l0.5,1.6v1.5l4.9,1.3l0.7-0.5l2-2.4l0.4-3.7l1.3-2.9l1.6-0.4l1-1.5
	l1.5-0.6l1.1-0.9l0.5-1.5l0.9-1.4l5.4-1.3l-0.5-1.4l1.1-1.8l1.5-0.5h1.9l7.1,7.2l1.5-1v-3.8l-3.3-11.1l-1.9-2.6l-3.4-2.9l-3.7-0.4
	l-0.1-0.6l-0.5-1l-1.4-0.9h-1.9l-7.7-1.9l-1.9-2.7l-0.5-1.4l-1.6-1.2l-1,0.8l-1.5,0.6l-5.1,7l-1.3,1.1l0.6,3l-0.3,1l0.5,0.5l1.9,0.1
	l0.3,1.6l-0.8,1.5l-0.4,3.5l-0.8,1.1l-0.1,3.9l-1.9,2.5l-0.5,1.5l1.4,1.1l-0.8,1l-0.6,1.8l-2.3,2.2l-1.8,1L451.5,226.7L451.5,226.7z
	"/>
<path id="path2726" sodipodi:nodetypes="cssssssssssscssssssssssssssssssssssssssssssssssssssssssscsssssssssssscsssssssssssssssssssssssssssssssssssssssssssssssssssscsssssssssssssssscsssssssssssssssssscssssssssssssssssssscsssssssscssssssssssscssscsssssssssssssssssssssssssssscssssssssssssssscssssssssssssssssscssssssssssssssssssssssssssssssssssscssssssssssscssssssssssssssssscsssssscsssssssssssssscssssssssssssssssssc" class="st2" d="
	M581.5,323.2l-1.7,0.9l-0.6,1.4l-1.3,0.8l-5.8-0.1l-1.3,0.6l-5.7-0.1l-0.9-1l-0.1-2.1l0.3-1.3l-0.6-0.8v-3.8l-0.9-1.3l-1.5-0.9
	l-1.1-1.3l-0.6-1.5l-2.1-2.4l-0.6-1.5l-1.5-0.8l-0.8-1.1l-1.6-0.9l-0.5-1.3l0.3-2.9l-1.1-1.5l-3.7-0.3l-1.5,0.5l-2.7,1.8h-4.3
	l-1.4,0.8h-1.9l-1.3-1.1l-7.6-0.4l-1.4,0.5l-1.5-0.4h-1.9l-2.1,1.9l-3.4,1.4l-3.4-0.8h-5.9v-2.1l-0.9-1.9v-2l0.8-1.5l2.1-2.3
	l0.5-1.5l-0.1-1.9l-1.5-2.9l-2.7-2.1l2-3.3l1.1-4.2l1.1-1.4l0.1-1.8l0.9-1.3l0.4-1.6l-1.4-0.8l-1.1-3.4l-1.9-0.5l-1.4-3.2l-0.9-0.4
	l-2,0.5l-1.5,0.9l-2.4-1.9l-0.9-1.5l-1.6-0.4L495,261l-2-3.2l-1.8-0.3l-1.8-0.8l-0.1-1.8l-1.1-1.3l-1.8-0.3l-3.3-2.1l-0.9-1.5
	l-1.4-1.4l-1.6-2.9l-0.3-1.8l-2-0.8l0.4-1.3l0.9-1.4l0.3-1.6l1-1.3l-1.4-0.8l0.9-1.1l-3.5,0.3l-1.3,1l-1.5,0.6l-0.9-1.1h-2.9
	l-1.5-0.8l-1-1.2l2.5-3.1l0.4-3.7l1.3-2.9l1.6-0.4l1-1.5l1.5-0.6l1.1-0.9l0.5-1.5l0.9-1.4l5.4-1.3l-0.5-1.4l1.1-1.8l1.5-0.5h1.9
	l7.1,7.2l1.5-1v-3.8l-3.3-11.1l-1.9-2.7l-3.4-2.9l-3.7-0.4l-0.1-0.6l-0.5-1l-1.4-0.9h-1.9l-7.7-1.9l-1.9-2.7l-0.5-1.4l-1.6-1.3
	l0.6-1.5l2-2.5l0.5-1.8l1-0.9l0.6-3.4l5.6-6.9l-0.8-1.5l-0.4-1.9l5.5-7.9l3.1,0.8l4.3-2.5l2.3,1.5l4.3-1.3l3.7,0.3l2.1,2.1l1.8,0.1
	l0.1,1.8l1.1,3l-0.6,1.5l-0.1,3.7l3,1.1l1.3,1.4h1.9l2,0.6l1.6,1.3l1.9-0.1l1.6-0.6l1.3-0.9l1.4,0.8l-1,0.9l0.3,1.9l0.8,1.5l11.7,1
	l1.4,1l0.5,5.6L532,190l-0.4,1.6l3,1.9l0.6,0.9l3.5,2.8l1.8,0.6l1.9,0.3v1.4l2,0.8l8.2,6.3h1.6l3.9-1.8l1.5,0.5v1.9l2.1,0.4l1.5,0.6
	l0.9,2.4l0.1,1.1l0.4,0.6l1.5,0.9l1,1.3l1.6,0.9h0.3l0.5,0.8l1.8,0.1l1.4,0.5l1.3,1.3l1.8,0.4l0.6,1.5l1.3,1.3l-0.4,1.6l-0.9,1.3
	l-0.5,1.4l-0.1,4.4l2.1,0.4v3.8l-0.6,1.3l-1.1,1.1v3.8l1.4,0.5l3-1l2.9,1.4l2.3,2.9l1.1,0.9l0.8,1.3l0.3,1.8l0.6,1.3h1.9l1.6,0.8
	l0.3,1.9l-0.5,1.5l-0.1,1.9l-1,1l0.1,3.8l1.3,0.8l1.6,0.3l1.5,0.8l-0.4,1.8l-0.8,1.4v3.9l1.4,0.5l0.5,1.5l0.8,1h0.9l1.3,1.9l1.5,0.9
	l3.7,0.5l2.6-0.7l1.4,1l0.6,1.4l0.1,1.8l0.5,1.4l-1.3,1.1l-0.5,0.3l-0.5,0.8L606,283l-1.4,1.5l-0.4,1.6l0.6,1.3l0.1,7.3l-0.8,1.8
	l-1.1,1.4l-1.4,1l-1.6,2.5l-1.8,1.4l-0.5,1.3l-1.4-0.1l-3.4,4.9l-1.3,0.8l-1.9-0.4l-1.4,2.8l-1.4,0.8l-1.1,2.9l-0.9,1.1l-1.5,1.3
	l-1.3,2.5l-0.1,1.8L581.5,323.2"/>
<path id="path2781" class="st4" d="M467.4,235.6l1.5,0.8h2.9l0.9,1.1l1.5-0.6l1.3-1l3.5-0.3l-0.9,1.1l1.4,0.8l-1,1.3l-0.3,1.6
	l-0.9,1.4l-0.4,1.3l2,0.8l0.3,1.8l1.6,2.9l1.4,1.4l0.9,1.5l3.3,2.1l1.8,0.3l1.1,1.3l0.1,1.8l1.8,0.8l1.8,0.3l2,3.2l1.3,0.9l1.6,0.4
	l0.9,1.5l2.4,1.9l1.5-0.9l2-0.5l0.9,0.4l1.4,3.2l1.9,0.5l1.1,3.4l1.4,0.8l-0.4,1.6l-0.9,1.3l-0.1,1.8l-1.1,1.4l-1.1,4.2l-2,3.3
	l2.7,2.1l1.5,2.9l0.1,1.9l-0.5,1.5l-2.1,2.3l-0.8,1.5v2l0.9,1.9v2.1h5.9l3.4,0.8l3.4-1.4l2.1-1.9h1.9l1.5,0.4l1.4-0.5l7.6,0.4
	l1.3,1.1h1.9l1.4-0.8h4.3l2.7-1.8l1.5-0.5l3.7,0.3l1.1,1.5l-0.3,2.9l0.5,1.3l1.6,0.9l0.8,1.1l1.5,0.8l0.6,1.5l2.1,2.4l0.6,1.5
	l1.1,1.3l1.5,0.9l0.9,1.3v3.8l0.6,0.8l-0.3,1.3l0.1,3.9l-1.8,0.9l-2,1.6l-1.4,1.8l-0.2,2.5l-3.4,5.5v2.7l-2.1,0.5h-2.7l-1.8-2.5
	l0.9-1.4l-2.7-1.1l-2,0.9l-0.7,2.1l-1.3,1.8l-2.3,0.7l-4.8,6.8l-2,0.7h-5.4l-1.8,1.3l-0.7,2l-0.7,0.2l-2,2.1l-0.4,2.5l-2.1,0.5
	l-3.4,2.9l-2.1,0.5l-5-0.5L506,364l-5.4,6.8l-2.7,0.2l-2-1.1l-3.2-3l-0.4-2.5l-1.8-1.3l-2.7-3.9l-1.6,0.4h-2.7l-2-0.9l-5-0.4
	l-6.1-2.1l-4.8-0.2l-2.1,0.9l-1.4,1.4v2.7l0.9,2l0.4,5l-0.9,2l-1.8,1.4l-2.1,0.7l-10.4-0.4l-2,0.9H441l-5.2-1.6l-3.2-3l-1.1-2
	l-1.6-1.3l-11.3-2.1l-3.4-2.9l-2.5-0.7l-1.4-2l-3.6-2l-1.4-1.6l-2.1-0.7l-1.3-1.6l-0.9-0.4l-3-0.4l-1.3-1.8l-3.2-2.1l-7.5-9.6h-0.4
	l-0.9-1.8l-4.5-1.8l-2.3-3.8l-0.4-2l-3.8-4.7l1.6-0.7l3.8-3.2l3-3.9l0.6-1.4l5.2-6.8l1.3-3.2l1.4-1.9l9.5-28.2l2.3-2.9l0.1-0.8
	l1.2-1.3l3.2-0.8l2.7,2.3l1.1,1.7l0.4-1.5l-0.4-2l2.7-1.6h1.4l1,0.3l-0.1-1.7l-1.7-0.8l-1.5-1.1l1-0.9l0.6-3.3l3-5.3l1.7-0.3l2-2.4
	l5.6-0.3l4.4-2h2.4l3.9,1.4l1,1l2.3,0.5l1.3-0.8l-0.8-1l-1.9-0.3l-1.5-0.7l-0.8-1.6l-1.8-0.3l0.1-1.8l1-1.1l1.5-0.8l5.5-4.7l0.5-1.6
	l0.9-1.2l0.4-1.5v-1.9l1.3-2.8l1.3-1.1l0.9-1.3l1.9-0.8l0.5,1l1.3,0.6h2l1.4-0.5l1.1-0.9l1.4,0.5l1.9,2.3l0.5,1.6v1.5l4,1.1
	L467.4,235.6L467.4,235.6z"/>
<path id="path2785" sodipodi:nodetypes="cssssssssssssssssssssssssssscsssssscssssssssssssssssssssssssssssssssscsssscsscssssssssssssscsssssssssscssssssssssssscsssssssscssssssssssssssssscsssssssssssssscsssssssssssssssscssssssssssssssscssssssssssssscssssssssssssssc" class="st4" d="
	M264,520.7l6.3,2.3l3.8,0.3l5.8,1.8l16.2-0.8l2.8-1l14.6,0.3l2.5-1.3l5.1,2.8l0.8,1.3l4.3,0.5l8.1,4l6.3,1.5l7.3-0.3l3-0.8l30.6,5.1
	l5.8-1.8l2-1.8l1.3-2.5V527l-2-0.5l-2.5,1.3h-3.3l-2.5-1.3l-7.3-7.8l0.3-2.3l1.3-2.5l-1.8-2l1.5-2.5l0.5-3.3l1.3-2.5l1.3-9.6
	l-0.5-2.8l0.5-2.3l-1-5.6l1.5-2.3l2-1.8l1.3-2.5l0.3-3.5l-1.3-2.8l-1.8-2l-0.5-0.3l0.3-3.8h7.6l4-2.3l-5.8-4.8l-1.1,0.7l-3.6,0.4
	l-1.6-1.4l-2.5-0.2l-1.4-7l0.9-2V445l-1.8-1.4l-1.6-2.1v-5.4l-0.4-0.9L369,434h-2.5l-7.5-2.1l-2.7-0.2l-2-1.1l-2.1-0.5l-1.6-1.3
	l-2-0.9l-1.4-2.3h-0.5l-1.8-1.3l-1.3-1.6l0.2-2.5l1.3-1.6l-3.2-3.4l-0.4-2.7l-1.1-2.7l-0.4-2.3l-2.1-3.4l-4.4-2l-1.5,0.4l0.5,1.5
	l0.7,0.9l-1.5,0.8l-3.3,4.2l0,0.1l-2.7,4.3l-1.3,0.8l-5.6,0.1l0.3,1.5l1.5,1.3l-0.1,3.7l-1,0.9l-0.6,1.4l-0.4,1.8l-0.9,1.3l-0.1,3.8
	l-0.1,0.4l-1,1.5v1.9l0.6,1.3l-0.3,1.9l-1.4,1.3l-3,1.2l-0.8,1.8l-2.3,2.4l-0.3,3.5l-0.6,1.4l-2.7,0.5l-1.4,1.1l-1.6,0.3l-2.4,1.8
	l-1.4,0.5l-0.4,1.6l-4.1,3l-0.8,3v2.2l-0.9,1.5l-0.3,1.6l-1.3,0.9l-0.6,3.3l-2.4,0.2l-1.9-0.4l-1.4,1.2l-1,4.9l0.4,1.2h3.8v0.9
	l-4.8,7.2l-0.3-0.1l-0.4,2l-0.9,1.1l-0.4,1.5l-1,1l-1.3,4.8l-2.1,2.4l-0.5,1.8l-1.9,2.5l-0.6,1.5l-0.9,1l-0.3,2.2l-1.3,0.7l-1.1,1
	l-1.4,0.8l-0.9,1.3l-1.4,0.8v1.4l0.9,1.3l-0.7,0.5h-1.9l-0.9,1.3l-0.3,3.7l-0.4,1"/>
<path id="path2792" sodipodi:nodetypes="cssssssssssssscsssssssssscssssssssssssscssscsssssssssssssssssssssssssssssssssssssssssssssssscssssssssssssssssssssssssscssssssssssssssssssssssssssssssssssscsssssssssssscssssssssssssssssssssssssssscsssssssssssssssssssssssssssscsssssssssscssssssssssssssssssssssssssscssssssssssssssssssssssssssssssscsssssssssssssssssssssssscsssssssssssssssssssscscsssssssssccssssssssssssssssssssssssssssscssssssssssssssssssssssssssssssssssssssssssssssssssssc" class="st4" d="
	M333.5,402.2l4.4,2l2.1,3.4l0.4,2.3l1.1,2.7l0.4,2.7l3.2,3.4l-1.3,1.6l-0.2,2.5l1.3,1.6l1.8,1.3h0.5l1.4,2.3l2,0.9l1.6,1.3l2.1,0.5
	l2,1.1l10.2,2.3h2.5l1.6,1.3l0.4,0.9v5.4l1.6,2.1l1.8,1.4v2.9l-0.9,2l1.4,7l2.5,0.2l1.6,1.4l3.6-0.4l1.1-0.7l5.7,4.8l8.9,3.2
	l2.1-0.5h5.4l2.5,0.5l1.8,1.6l2.1-0.2l4.3-1.4l6.4-7l3.8-9.8l3.2-3.2l4.5-1.3l1.3-1.6l-0.4-6.6l3.8-7.5l1.6-1.1l2.3,0.7l1.1,1.6
	l4.6,0.9l1.6,1.4v5.4l1.1,0.5l0.7-1.6l1.4-1.3l0.9-1.8l1.1-4.3l1.6,1.4l0.4,0.5l2.9,1.4l2.5,0.4l2.5-0.5l6.1-5.2l2.3-0.4l1.4,1.3
	l2.3,0.5l5.2-0.2l1.8-1.1l2.7-2.7l2-6.3l1.4-1.4l2.5-0.5l4.3,0.5l1.6-1.1h4.1l3.9-2l1.3-2l2-1.3l1.3-1.6l1.8-1.1l1.3-2l0.5-2.1
	l1.8-0.9l10.5-0.2l1.4-1.3l1.3-2l0.7-2l2.5-0.2l1.3-1.6l1.6-1.1l2,0.9l1.3,1.4l4.3,1.3l0.9-1.8l1.8-1.1h2.7l4.1-1.8l1.6,1.1l2.5,0.9
	l2-0.7l1.3-2.1l0.5-2.1l2.3-3.8h0.9l3.2,2.3l1.1,1.6l4.6,1.1h2.7l1.1-1.6l4.8,0.5l1.3,1.3l6.4,1.8l1.8-1.4l0.9-1.8l-0.2-2.5l3.8-1.6
	l1.1-1.6l2.7,0.2l1.4-1.3l0.5-2.3l-0.9-4.6l1.3-2l2.3-0.9l1.6-1.1l1.8-4.1l1.4-1.6h2.7l1.8-1.3l1.4-1.8l2.1-4.3l0.7-7.3l0.9-2
	l2.3-1.3l1.3-1.5l-1.3-2.1l-1.6-1.1l-1.1-1.8l-2.1-1.1l-7.1,0.9l-1.8,0.9l-2.3,0.4l-1.6,1.3l-1.3,1.6l-2.7,0.4l-1.8-0.9l-4.1-7h-4.8
	l-2-0.7l-2.7-2.7l0.9-7.1l-0.5-2.1l-0.9-1.8l-1.3-1.4l-0.4-0.2l-1.7,0.9l-0.6,1.4l-1.3,0.8l-5.8-0.1l-1.3,0.6l-6.5-0.2l-0.1,0.8
	l-1.8,0.9l-2,1.6l-1.4,1.8l-0.2,2.5l-3.4,5.5v2.7l-2.1,0.5h-2.7l-1.8-2.5l0.9-1.4l-2.7-1.1l-2,0.9l-0.7,2.1l-1.3,1.8l-2.3,0.7
	l-4.8,6.8l-2,0.7h-5.4l-1.8,1.3l-0.7,2l-0.7,0.2l-2,2.1l-0.4,2.5l-2.1,0.5l-3.4,2.9l-2.1,0.5l-5-0.5L506,364l-5.4,6.8l-2.7,0.2
	l-2-1.1l-3.2-3l-0.4-2.5l-1.8-1.3l-2.7-3.9l-1.6,0.4h-2.7l-2-0.9l-5-0.4l-6.1-2.1l-4.8-0.2l-2.1,0.9l-1.4,1.4v2.7l0.9,2l0.4,5
	l-0.9,2l-1.8,1.4l-2.1,0.7l-10.4-0.4l-2,0.9H441l-5.2-1.6l-3.2-3l-1.1-2l-1.6-1.3l-11.3-2.1l-3.4-2.9l-2.5-0.7l-1.4-2l-3.6-2
	l-1.4-1.6l-2.1-0.7l-1.3-1.6l-0.9-0.4l-3-0.4l-1.3-1.8l-3.2-2.1l-7.5-9.6h-0.4l-0.9-1.8l-4.5-1.8l-2.3-3.8l-0.4-2l-3.6-4.7l-1.7,0.4
	l-0.3,2.3l-9.1,12.6l-1.9,4.7l0.3,3.8l-0.1,0.5l-1.3,1.6l-0.5,1.4l-2.8,1.3l-1,1.8l-4.7,3.2l0.1,1.4l0.5,1.2l0.1,2.1l-0.9,1
	l-2.4-0.8l2.8,1.3l0.5,1.3l-1,1.4l-0.9,0.8l-2.3-2.9l-0.9,0.5l-1.1,1.3l-2.2,1.2l0.1,1.8l-0.8,1.3l-2.8,1.6l-0.9,1.4l4.2,5.7
	l-0.1,1.6l-0.9,1.3l-0.4,1.5l-1-1.9l0.2-1.6l-1.5,1.6l-1.5-0.1l-0.4-1.9l0.9-1.8l-0.1-1.8l-1.3,1.3l-2.3,6.4l1.6,1.3l0.6,1.4
	l0.6,0.5l0.1-0.3l1.8,1.1v1.9l-0.6,1.5l-3.9,5.7l-1.2,0.9l-1.5,3.8L333.5,402.2L333.5,402.2z"/>
<path id="path2812" sodipodi:nodetypes="csssssssssssssssssscssssssssssssssscsssssscssssssssssssssssssssssssssscssssssssssssscsssssssssssssssssssscsssssssssssssssssssssssssssssssssssssssssssssssssssscssssssssssssssssssssssssssssssssssssssssssssssscssssssssssssssssssssssssssssssc" class="st4" d="
	M405.4,594.2v-3l-2.3-2l-3.3-0.5l-1,2.8l-2.8,0.5l-3.3-0.8l-0.8,3l-3,0.5l-3.5-0.3l-2.3-1.5l-1.5-2.8l-0.8-3l-4.8,3.5l-0.3-7.3
	l2-5.8l0.3-0.3l1.8-4l0.5-3.3l-0.3-3.5l-1.5-2.5l-0.3-7.3l0.8-3l2.8,0.5l0.5-7.1l-5.1-10.9l-20.7-3l-3.8-1.5l-2-0.3l-10.4,1
	l-14.4-5.6l-4.3-0.5l-0.8-1.3l-5.1-2.8l-2.5,1.3l-14.6-0.3l-7.6,2l-11.4-0.3l-5.8-1.8l-3.8-0.3l-6.4-2.2l-3.9,0.1l-1.3-0.7l-1.4-0.3
	l-0.5,1.5l-1.8,0.1l-6.1,10.8l-0.1,0.7l-2.2-0.1l-1.3,0.8l-2,2.4l-0.6,1.6l-0.3,3.8l-1,1.2l-0.3,1.6l1.7,2.4l-0.3,1.8l-1.7,2.4
	l-3.2,0.1l-0.4,1.5v1.9l-2.2,1.2v2.4l-0.1-0.1l-0.5,0.3l-0.4,1.6v1.9l0.5,1.4l1.9,0.1l1.4,2l-2.3,2.8l-1.4,2.8l-0.4,1.5l-1.9,3.2
	l-1,3.5l-1.3,1.9l-2.6,7.4l0.3,7.5l-0.4,1.5l0.1,1.4l1.8,0.9l-0.1,1.7l-1.5,0.6l-2.2,1.6l0.5,2.2l1.1,0.6l1.5,0.3l0.1,1.9l-1,1.3
	v3.8l1.3,0.9l2,2.8l1.4,1.1l-1.3,0.8l-0.9,1.7l-1.8,0.1l-0.5-1.4l-1-0.9l-1.5,0.9l-2.2,2.5l3.9,0.1l5.8,2.3h3.8l1.5,2.3h3.8l2.8-1.3
	l6.3,2.3l3.8,0.5l2.3-1.8l1.8-2.3l0.3-3.5l-0.8-3l2-2h3.3v3.3l3.5,1.3l1-2.8l4.8-2.8l0.8-3.5l1.8-2l6.3-2.5l2.8,1.5l1.8-6.1l1.5-2.5
	l4,0.3l2.5-1.3l1-3l5.8-1.8l1-2.8l2.3-1.8l1.8-2.3l2.8,1.3l2.3,1.8l2.8,1l5.8-2.3h7.6l5.3-2.8l5.1,1.3l1.5,5.1l4.3,3.5l1.5,2.3
	l2.5,1.5l3.5,0.3l2.3,1.8l3,1l13.9,1.5l2.8-1.5l1.8-2l5.6,0.3l-0.5,3.8l2,3.3l2-2l3.3-0.8l2,2l3-0.3l2.8-1l3.5,0.3l2.8,1.5l3.5,0.5
	l1.3-2.5v-3.5l-0.8-3l-1.5-2.3L405.4,594.2L405.4,594.2z"/>
<path id="path2843" sodipodi:nodetypes="csssssssssssscsssscssssssscsssssssssssssssssssssssssssssscsssssscssssssscsssssssssscsssssscsscssssssssssssssssscsssssssssssssssscssssssssssssssssssssssssssscssssssssssssssssssssscssssssssssscsssssssssssscssssssscsssssssssssscssssssssssssssssssssssssssscssssssssssssssssssssssssssssssssssssssccsssssssssssssssscsssssssssssssssssssssssssssssssssssssssssssssssssssssssssssssssscssssssssssssssssssssssssssssssssssssssssssssssssssssssssssssssssscsssssssssssssssssssssssssssssssssssssssssssscssssssssssssssssssssc" class="st5" d="
	M634.8,653.2l-3.4-0.9l-2.3-1.8l-3-0.8h-3.8l-2.8,1l-4.3,3.5l-7.3,13.1l-0.3,0.3l0.5,4.5l2,2.3l3.3,1.8v0.3L601.4,695l-0.5,8.8
	l-1.8,2.3l-2.3,1.5l-1.3,2.5l-1.5,6.1l-2.3,1.8v3.8l-1.5,2.8l-0.3,2.8l-3,5.8l-4.3,3.5l-1,2.8l0.8,3.5v11.4l-1,2.8l-9.8,1.5
	l-2.5,1.8l-2-0.3l-0.3-3.5l-1.8-3.3l-2-1.8l-4.5-0.3l-1-0.8l-1.8-2.3l-3-1l-2.5-1.5V743l-3.8-5.3v-4.3l-1.3-2.8l-1.8-2.3l-5.1-3.3
	l-5.3,2.5l-0.5,1.3h-1l-2.8-1.3l-1.3-2.5l-3.5-4l-3.5-0.3l-5.3-3.3h-4.3l-1.3-2.5l-0.8-0.8l-3.8-9.1l0.3-3.8l-3.8-4.8l-0.8-2.5
	l0.8-3l-0.3-3.5l-15.4-10.6l-3-0.8l1-3.5l1.8-2.5l3.3-1l-0.5-2.3l1.5-2.3l3.3-0.5l1.5-2.3v-7.1l-2.3-1.5l-0.5-1.6l1.3-1.1l3-0.8l3-2
	l3-0.8l0.8-3.5l-1-3l-2.3-1.8l1.8-2l0.8-3.3l2-2.3l2.3-1.5l0.8-3l2.3-1.5l3.5,0.3l2.8-1.3h3.8l1.3-0.5l2.5,1.5l3,0.8l4.8-4v-7.6
	l0.8-3l2.3-1.5l-2.3-6.3l2.5-1.3l3.8,1l2.8-1.3l1.5-2.3l3.3-1.5l4.5-0.3l3.8-8.3l1.3-10.4l1.3-2.5v-3.8l2-5.6v-9.3l-2.5-2.3
	l-0.3-3.5l0.8-2.8l-8.1-5.8l0.3-3.5l3.3-0.8l3-2.3v-1.5l-0.8-3l0.5-3.5l2.3-1.5l1-3.3l0.3-3.8l1-3l2-2.5l0.3-3.8l2.3-2.3l3-0.8
	l-0.5-5.6l-1.8-3l4.3-3.8l-0.3-3l-1-3.3v-3.8l0.8-2v-7.6l-2-2.5l-1-0.3v-3.5l6.1-12.9l0.3-7.3l2.3-2.3l2.5-1.3l1.5-2.5l2.5-1.3
	l2-3.5l0.8-2.5l0.3-3.5l-1.5-2.3l-3.5-0.5l-1-2.8l-1.8-2l-3.8-1.3l-0.8-1l-0.3-6.3l2.8-6.6l3-0.8l2-1.8l2.8-1.3l3.8-3.8h3.8l1.5-2.3
	l-1.8-5.6l2-1.5l0.9-1.8l-0.2-2.5l3.8-1.6l1.1-1.6l2.7,0.2l1.4-1.3l0.5-2.3l-0.9-4.6l1.3-2l2.3-0.9l1.6-1.1l1.8-4.1l1.4-1.6h2.7
	l1.8-1.3l1.4-1.8l2.1-4.3l0.7-7.3l0.9-2l2.3-1.3l1.3-1.5l12,7.7h8.1l3,1.3l4,0.5l8.1,5.6l8.3,1l3-0.8l-3-2.5l0.8-3l3.3-0.8l2.3-1.5
	l2.3,1l2-1.8l-0.8-1.5l-2-1.8l0.3-3.3l2-0.8l4.3,3.8l4.8,1.5l4.5,3.5l9.1,3.8l7.3,0.5l8.1,4l4.2,0.5l-0.1,1.3l-0.6,1.3l-1.5,0.7
	l-0.9,1.5l-2.3,2l-2.7,3.9l-0.1,5.6l-1.2,0.9l-1.1,2.7l-1.5,0.6l-0.8,1.9l-0.3,0.1l-3.5,0.4l-3,5.4l-1.3,1l-1.7,0.3l-3.3,2.9
	l-1.5,0.4l-0.9,1.1l-1.3,0.8l-3.9,5.3l-1,3.3v5.7l2.4,4.3l-0.8,0.8l-0.5,5.2l-0.3,0.5l-0.4-0.3l-1.4,2.4l-1.4,0.5l-3.2,3.7l-1.5,0.8
	l-4.3,4.7l-0.6,1.4l0.1,11.9l0.6,1.3l0.5,3.3l7.2,7.5v1.9l-1,3.4l-1.4-0.4l-0.4,1.7l0.7,1.3l-1.5,0.5l-1.1,2.5h1.6l-0.8,3l-1.9,0.1
	l-0.8-1.1H672l-1,0.9l-0.6,1.7l-1.1,1.1l-1,3l1.4,3l0.1,5.6l-1,3.4l-0.1,5.3l-0.5,1.7l-0.1,5.6l-0.6,1.3l-0.4,3.4l-1.9,4.3v1.9
	l-0.6,1.4l-0.3,1.6l-1.9,3.9l-0.3,1.8l-3.3,4.8l-0.6,2.1v10.5l0.5,1.4l-1.4,6.4l-3.5,5.4l-1.7,1.1v1.8l-0.6,1.4l-0.1,1.8l0.9,0.6
	l0.8,2.5l-0.9,1.1l-0.3,1.7l-0.6,1.3l-0.9,6.9l-0.9,1l0.1,1.3l0.8,1.2l-1,1.1l-1.5,0.6l-0.5,3.4l-1.3,1.5l-0.1,12.8l-0.9,1.8
	l-0.1,3.9l-0.9,3l-1.4,1.3l-0.4,1.7l-1.6,2.4l-0.2,1.9l-1.3,3.3l-0.1,3.7l-0.9,1.4l-0.3,2.1l0.5,0.4l0.6,1.7v3.8l1.7,2.5l-0.1,3.7
	l-0.5,1.5l-1,1.1l-1.5,0.6l-1.8,0.1l0.4,0.5l1.7,1l-0.8,1.5v1.9l-0.9,3.3v1.9l-0.6,1.5L634.8,653.2L634.8,653.2z"/>
<path id="path2425" sodipodi:nodetypes="csssssssssssssscsssssssssssssssssscsssssssssscsssssssssssssssssssssscsscsssscsssssssssssssssscssssssssssssssssssssssssssscssssssssssssssssssssscssssssssssscsssssssssssscssssssscsssssssssssscsssssssssssscssssssssssssssssssssssssssssssssssscssssssssssssssssssssssssscssssssssssssssssssssssssssssssssssssssssssssssssccsssscsssssssssssssssssssssssssssssssssz" class="st4" d="
	M377.4,536.1l5.1,10.9l-0.5,7.1l-2.8-0.5l-0.8,3l0.3,7.3l1.5,2.5l0.3,3.5l-1.5,6.1l-0.8,1.3l-0.3,0.3l-2,5.8l0.3,7.3l4.8-3.5l0.8,3
	l1.5,2.8l2.3,1.5l3.5,0.3l3-0.5l0.8-3l3.3,0.8l2.8-0.5l1-2.8l3.3,0.5l2.3,2l0.1,3l6.5-0.7l11.6,4.3h3.8l3.3,0.8l1.3,2.5l0.3,8.6
	l-0.8,3.3l-2.8,2.3v3.8l1.5,2.5l2.3,2l0.5,7.3l2.5,5.8l2,2.3l11.4,1.3l5.6-2.3l11.1,1l2.8,1l11.9,0.8l6.3,2.3h0.5l2.5,1.8l1.3,6.3
	l1,0.5l1.3-1.3l3-0.8l3-2l3-0.8l0.8-3.5l-1-3l-2.3-1.8l1.8-2l0.8-3.3l2-2.3l2.3-1.5l0.8-3l2.3-1.5l3.5,0.3l2.8-1.3h3.8l1.3-0.5
	l2.5,1.5l3,0.8l4.8-4v-7.6l0.8-3l2.3-1.5l-2.3-6.3l2.5-1.3l3.8,1l2.8-1.3l1.5-2.3l3.3-1.5l4.5-0.3l3.8-8.3l1.3-10.4l1.3-2.5v-3.8
	l2-5.6v-9.3l-2.5-2.3l-0.3-3.5l0.8-2.8l-8.1-5.8l0.3-3.5l3.3-0.8l3-2.3v-1.5l-0.8-3l0.5-3.5l2.3-1.5l1-3.3l0.3-3.8l1-3l2-2.5
	l0.3-3.8l2.3-2.3l3-0.8l-0.5-5.6l-1.8-3l4.3-3.8l-0.3-3l-1-3.3v-3.8l0.8-2v-7.6l-2-2.5l-1-0.3v-3.5l6.1-12.9l0.3-7.3l2.3-2.3
	l2.5-1.3l1.5-2.5l2.5-1.3l2-3.5l0.8-2.5l0.3-3.5l-1.5-2.3l-3.5-0.5l-1-2.8l-1.8-2l-3.8-1.3l-0.8-1l-0.3-6.3l2.8-6.6l3-0.8l2-1.8
	l2.8-1.3l3.8-3.8h3.8l1.5-2.3l-1.7-5.6l-1.4-0.8l-4.8-1.1l-1.3-1.3l-4.8-0.5l-1.1,1.6l-5.2-0.4l-2.1-0.7l-1.1-1.6l-3.2-2.3h-0.9
	l-2.3,3.8l-0.5,2.1l-1.3,2.1l-2,0.7l-2.5-0.9l-1.6-1.1l-4.1,1.8h-2.7l-1.8,1.1l-0.9,1.8l-4.3-1.3l-1.3-1.4l-2-0.9l-1.6,1.1l-1.3,1.6
	l-2.5,0.2l-0.7,2l-1.3,2l-1.4,1.3l-10.5,0.2l-1.8,0.9l-0.5,2.1l-1.3,2l-1.8,1.1l-1.3,1.6l-2,1.3l-1.3,2l-3.9,2h-4.1l-1.6,1.1
	l-4.3-0.5l-2.5,0.5l-1.4,1.4l-2,6.3l-2.7,2.7l-1.8,1.1l-5.2,0.2l-2.3-0.5l-1.4-1.3l-2.3,0.4l-6.1,5.2l-2.5,0.5l-2.5-0.4l-2.9-1.4
	l-0.4-0.5l-1.6-1.4l-1.1,4.3l-0.9,1.8l-1.4,1.3l-0.7,1.6l-1.1-0.5V432l-1.6-1.4l-4.6-0.9l-1.1-1.6l-2.3-0.7l-1.6,1.1l-3.8,7.5
	l0.4,6.6l-1.3,1.6l-4.5,1.3l-3.2,3.2l-3.8,9.8l-6.4,7l-4.3,1.4l-2.1,0.2l-1.8-1.6l-2.5-0.5h-5.4l-2.1,0.5l-9-3.3l-3.9,2.3h-7.6
	l-0.3,3.8l0.5,0.3l1.8,2l1.3,2.8l-0.3,3.5l-1.3,2.5l-2,1.8l-1.5,2.3l1,5.6l-0.5,2.3l0.5,2.8l-1.3,9.6l-1.3,2.5l-0.5,3.3l-1.5,2.5
	l1.8,2l-1.3,2.5l-0.3,2.3l7.3,7.8l2.5,1.3h3.3l2.5-1.3l2,0.5v3.3l-1.3,2.5l-2,1.8l-5.8,1.8L377.4,536.1L377.4,536.1z"/>
<path id="path2907" sodipodi:nodetypes="csssssssssssssssssssssssssssssssssssssssssssssssssssssssscssssssssssssssssssssssssssssssssssssssssssssssscsssssssssssssssssssssssssssssscsssssssssscsssssssssssssssssssssscsssssssssssssscssssssssssssssscssssssssssssssssssscssssscssssssssssssssssssssssscsssssssssssssscsssssssssscssssssssssssssscssssssscssssssc" class="st4" d="
	M229.7,689.4l-0.2-1.7l-1.6-0.6h-3.8l-0.4-1.5l0.2-5.1l3-6.9l1.4,0.1l3.7-1.5l1.3-5l1-1.7l-0.3-3.5l-0.6-0.9l-1.4,1.3l-1.3-1
	l-0.8-1.5l-0.1-1.9l1-3.2v-1.7l-1.5-0.4l0.1-1.8l2.2-4.2h-1.7l-1.6-0.9l-0.4-2l0.8-1.5v-2l0.9-1.1l0.5-1.8l0.8-1.4v-1.9l-1.4-0.6
	l-5.7,0.4l-1.8-0.6l-0.9-1.5l0.4-9.1l1.6-0.9l3.9,0.1l5.8,2.3h3.8l1.5,2.3h3.8l2.8-1.3l6.3,2.3l3.8,0.5l2.3-1.8l1.8-2.3l0.3-3.5
	l-0.8-3l2-2h3.3v3.3l3.5,1.3l1-2.8l4.8-2.8l0.8-3.5l1.8-2l6.3-2.5l2.8,1.5l1.8-6.1l1.5-2.5l4,0.3l2.5-1.3l1-3l5.8-1.8l1-2.8l2.3-1.8
	l1.8-2.3l2.8,1.3l2.3,1.8l2.8,1l5.8-2.3h7.6l5.3-2.8l5.1,1.3l1.5,5.1l4.3,3.5l1.5,2.3l2.5,1.5l3.5,0.3l2.3,1.8l3,1l13.9,1.5l2.8-1.5
	l1.8-2l5.6,0.3l-0.5,3.8l2,3.3l2-2l3.3-0.8l2,2l3-0.3l2.8-1l3.5,0.3l2.8,1.5l3.5,0.5l1.3-2.5v-3.5l-0.8-3l-1.5-2.3l1.6-2.4l6.4-0.6
	l11.6,4.3h3.8l3.3,0.8l1.3,2.5l0.3,8.6l-0.8,3.3l-2.8,2.3v3.8l1.5,2.5l2.3,2l0.5,7.3l2.5,5.8l2,2.3l11.4,1.3l5.6-2.3l11.1,1l2.8,1
	l8.5,0.2l-1.2,0.3l-2.5,1.3l-6.6,1l-2.3,1.5l-6.3,1.3l-4.3,3.5l-1.5,2.5l-2.8,1.3l-2.3,1.8l-3.3,0.5l-2.3,2.5l-1.8,4.3l-1.8,1.5
	l-1,2.8l-1.8,2l-0.3,3.5l-2.8,1h-3.8l-2,2l-1.5,2.5l-4,4l-7.1,0.5l-2.3,5.8l-5.1,2.5l-1,2.8l-6.6,0.5l-1.3,6.6l-8.1-0.3l-2.3-2
	l-7.8-0.3l-1.3,11.6l1.3,2.8l2,2.5v3.8l-2,1.8l-2.5-1.3l-6.3,1.3l-3-1l-3.5-2.5l-3.8,5.6l-3,0.8l-3.3-0.3l-4.3-3l-6.1-1.8l-1-2.5
	l3.3-4.8l-0.8-2.5l-2-3.3l-0.5-2.5l1.3-2.5l-1-2.8l-0.3-3.5l1.5-2.8l2.3-1.8l0.3-3l-1-2.8l-3.5-0.3l-3.8-1.3l-1-2.3l2.5-1.8
	l-0.3-3.3l-7.8-0.5v-3.3l2.5-1.8l1.5-2.3l-2-1.8l-2.3,1.3l-3-0.8l-2.5-2l-3.3-1l-1.8-2.3l-3.8-1l-0.3,0.5l-2.3,1.5l-3.3,0.3l-2-2
	l-3.3,0.5l-5.3,2.5H293l-6.1,3.5l-0.3,0.3l-1.5,2.5l-6.3-0.3l0.3,3l-7.1,0.5l-0.5,3.3l-1.3,2.5l-1.8,1.5l-2.5-1.5l-2,2l1,2.8
	l-0.5,1.8l-9.6,4.8l-0.8,3l-3.3,4.8l-3,1.3l-4.5-1.3l-1.3-2v2.8l-2.5-0.3l-2.3-2l-1-3l-3.8-0.8L229.7,689.4L229.7,689.4z"/>
<path id="path2856" sodipodi:nodetypes="cssscsssssssscsssssssssssssssssssssssssssssssssssssssscssssssssssssssssssssssssssssssssscssscssssssssssssssssssssssssssscsssssssssssssssssssssssssssssssssssssssssssssssscsssssssssssssssssssscssssssssssssssssssssssssssssssscssssssssssssssssssssssssssssssssssssssssssssssssssssssscsssssssssssssssssssssssssccsssssssssscssssscssssssssssscssscsssssssscssssssssssssssssscssssscssssssscscssssssssssssssssssssssscsssssssssssssssssssssscssssssssssscsssssssssssscsssssscsssssssssscssssssscsssssscsssssssssssssssssssssssssssssscssssssscsssscssssssssssssc" class="st5" d="
	M634.7,653.3l-2.2,6.8v1.9l-1.4,0.9l-1.8,7l-0.1,5.8l-1.8,3.8l0.1,5.5l-1.1,5.6l-1.5,1H623l-1.5,0.4l-1.3,1l-1.1,3.2l-0.8,1.3
	l-1.4,1.3l-0.6,1.4l-0.1,1.7l-1.2,1.1l-0.4,4.1l-1,1.3l-2.4,9.7l0.9,1.1l0.5,1.4l-0.8,1.3l-1.5,1.2l-1.4-0.3l-0.9-1.4l-1.1,0.5l1,1
	l0.1,1.4l-3,2l0.3,7.9l1.9,3.8l0.4,1.8l-0.3,3.7l-1.4,1.4l0.1,5.4l3,3.2l-0.9,2.9l-3.7,0.1l-1.3,1l-2.2,4.2L600,762l-3.8,0.1
	l-0.9,1.2l-1.4,0.8v1.9l-0.8,1.3v1.9l-2,2.9l-1.4,4.9l-1,1.4l-0.9,5.7l-1.2,1.7l-0.3,1.6l-1.1,0.8l-1,1.1l-1,2.9l-1,1.6l-1.3,5.1
	l-0.8,0.9l-0.5,1.5v1.9l-3.3,3.4l-0.5,1.4l-1.8,0.1l-1.1,1l-0.9,1.5l-0.7,0.3l-0.3,3.2l-3.4,7.4l-2.2,2l-2.1,4.4l-0.6,3.2l-1.2,1
	l-1.5,0.4l-2.4,2.5l-0.1,3l-3.2-0.8l-1.4,0.5l-3.4,0.5l-5.8,4.8l-0.8,1.2l-0.3,1.6l0.6,1.3l1.8,2l0.4,1.3h-1.9l-0.8,1.3l0.6,1.3
	l1.3,0.7l1,1.1l-0.4,1.8l1.1,2.8l-0.5,1.7l-2.1,1.9l-1.7,0.3l-1.4,1.4l-1.3,8l-2.2,2l-2.8,1.2l-1.2,1l-0.8,1.3l-2.5,2l-0.8,1.1
	l-1.1,0.8l-1.5,0.6l-3.8,4.5l-2.7,1.5l-1.5,0.4l-1,0.9l-1.4,0.6l-1.9,0.3l-1,1l-1.8,0.1l-0.9,1.1l-2.4,1.4l-1,1l-2.7,1.3l-0.4,1.5
	l-1,1.3l-1.8,0.1l-1.1,1l-4.1,1.8l-1.1,1l-1.7,2.6l-0.9,3.2l-1.1,1.3l-0.3,1.6l-0.9,1.2l-0.1,1.8l-0.8,1.5l0.1,1.8l-0.2,0.6
	l-0.2,5.2l-0.8,1.5l-0.1,1.4l-2,2.8l-3.5,3.2l-0.9,1.3l-1.7,0.9l-0.8,1.3l-0.3,1.7l-0.9,1.3l-0.1,1.8l-0.7,1.6v1.9L477,945v2.5
	l-2.9,6.8v1.9l-0.9,0.9v3.8l-2.2,4.2l0.1,2.1l-1.3,1.7l-0.5,3.5l-0.9,1.1l-0.3,3.5l-1,1.3l-0.4,1.8l-1.9,2.5l-0.5,1.4l-0.9,1.1
	l-3.6,10.1l-0.9,1.3l-0.5,5l-2.5,2.5l-2.9,9.1v3.5l-0.6,1.4l0.3,5.4l1.3,1.7v7.8l0.9,3.2l0.1,4.6l-3.5,1.2l-2,1.8l-3.3,1.3l-2.8-4.8
	l-3-0.8h-4l-1.3-2.8l-2.8-1l-2.3-1.5l-4.3,0.3l-0.5-2.3l0.8-3.3l1.8-1l-2.8-1l-1-2.5l-4.8-2.8l1.8-2.3l2.5-1.3l-0.3-7.6l-2.5-1.5
	l-1.3-2.5h-2.8l-3.8-4l-3.5-1.8l4.8-14.6l6.6-1l1.3-2.8l-0.8-3.3l-2.8-2l-2.5-5.3l-4-2.5l-0.3-3l-1-3l4.3-3.3v-3.8l-4-8.1l-0.5-4.3
	l-1.8-1l-1-3l0.5-3.5l2.8-5.1l-1.3-2.8l1.5-2.3l1-2.8l-0.3-3.5l1-2.5l2-2l0.8-3l1.8-2l0.3-1l4-5.6l0.3-3.5l1.8-2.3l0.3-2.5l3.3,0.5
	l3.5-1.8l6.1-1.3l3-6.3l11.1-0.5l2-2.3l0.3-3.5l1.8-2l0.5-9.9l2-2l-1-2.3v-3.8l-1-3.3l-2.5-1.3l-3.3-0.3l-2.8-2.5l-0.8-1.5l-0.8-3
	v-3.8l0.5-1l0.7-6.8l-2.9-3.9l-5.4-0.4l-2.9-8.6l0.4-5l-1.4-1.4l-1.8-3.9v-5.4l1.1-4.3l10-12.9l0.7-1.8V785l6.4-4.6l-1.4-4.3
	l-2.5-2.5l1.8-4.3l3.6-3.9l-1.1-22.5l3.2-2.1l2.1-5l3.6-1.8l-1.1-3.9v-3.9l1.4-3.9l-0.4-1.8l-1.1-0.7l2.9-3.6l3.6-1.4l6.8-5.7l5-6.4
	h3.9l7.9-2.1l2.9-2.9l8.4-3.6l0.9,2.5l3.8,4.8l-0.3,3.8l3.8,9.1l0.8,0.8l1.3,2.5h4.3l5.3,3.3l3.5,0.3l3.5,4l1.3,2.5l2.8,1.3h1
	l0.5-1.3l5.3-2.5l5.1,3.3l1.8,2.3l1.3,2.8v4.3l3.8,5.3v2.8l2.5,1.5l3,1l1.8,2.3l1,0.8l4.5,0.3l2,1.8l1.8,3.3l0.3,3.5l2,0.3l2.5-1.8
	l9.8-1.5l1-2.8v-11.4l-0.8-3.5l1-2.8l4.3-3.5l3-5.8l0.3-2.8l1.5-2.8v-3.8l2.3-1.8l1.5-6.1l1.3-2.5l2.3-1.5l1.8-2.3l0.5-8.8
	l12.1-18.4v-0.3l-3.3-1.8l-2-2.3l-0.5-4.5l0.3-0.3l7.3-13.1l4.3-3.5l2.8-1h3.8l3,0.8l2.3,1.8L634.7,653.3L634.7,653.3z"/>
<path id="path2905" sodipodi:nodetypes="cssssscssssssssssssssssssssssscsssssssssssssscsssssssssscssssssssssssssscssssssscsssssscsssssssssssssssssssssssssscssssssssssssssssssscsssscssssssssssssssssssssssssssssssssscsscssssssssssssssssssssssssscsssssssssssssscscssssssssscsssssssssssssssscssssssssssssssssssssssscssssssscsssssssssc" class="st3" d="
	M380.4,719.2l-1,0.8l-2.5-1.3l-6.3,1.3l-3-1l-3.5-2.5l-3.8,5.6l-3,0.8l-3.3-0.3l-4.3-3l-6.1-1.8l-1-2.5l3.3-4.8l-0.8-2.5l-2-3.3
	l-0.5-2.5l1.3-2.5l-1-2.8l-0.3-3.5l1.5-2.8l2.3-1.8l0.3-3l-1-2.8l-3.5-0.3l-3.8-1.3l-1-2.3l2.5-1.8l-0.3-3.3l-7.8-0.5v-3.3l2.5-1.8
	l1.5-2.3l-2-1.8l-2.3,1.3l-3-0.8l-2.5-2l-3.3-1l-1.8-2.3l-3.8-1l-0.3,0.5l-2.3,1.5l-3.3,0.3l-2-2l-3.3,0.5l-5.3,2.5H293l-6.1,3.5
	l-0.3,0.3l-1.5,2.5l-6.3-0.3l0.3,3l-7.1,0.5l-0.5,3.3l-1.3,2.5l-1.8,1.5l-2.5-1.5l-2,2l1,2.8l-0.5,1.8l-9.6,4.8l-0.8,3l-3.3,4.8
	l-3,1.3l-4.5-1.3l-1.3-2v2.8l-2.5-0.3l-2.3-2l-1-3l-3.8-0.8l-2.8-1.8l-0.8-1l-7.2-1.3l-3.9,6.8l0.6,1.3l1,0.1l-0.6,1.9l-1.3,0.9
	l-0.3,1.8l2.8,1.7l1.2,0.3l1.6-0.5l-2.2,3.2l-3.4,1.3l-0.9,1.3l0.3,1.8l0.8,1.5l-2.5,2.4l-0.4,1.7l-0.8,1.4l-2.4-0.6l-0.6,1.3
	l-0.8,3.4l0.1,3.8l-4.9,9.2l-0.5,3.5l-1.5,2.5l1.1-1.4l1.5-0.6l1.5-0.1l0.6,8l1.2,0.9l1.5,0.6l-0.9,5.3l-3.3,1.4h-0.3l-3.5,1.2
	l-3.2,2.9l-3.3,1.5l-0.3,3.5l0.3,0.5l0.3,3.7l0.8,0.9h1.9l-0.1,5.9l0.8,2.4l2.1,2.5l0.3,0.8l1.9-0.7l1.3-0.9l1.1-1.2l1.5-2.8
	l5.6-6.3l3-2l19.9-1.8l1,1l0.8,3l6.8-0.3l0.5,2.8l3,0.5l2.5-1.3l6.3,2.8l1.5,2.5l-2,2.5l-3.3,1.3l-5.3,7.6l3.8,2.5l7.3,9.3l-3.3,8.3
	h-3.8l-2.8,1.3l-0.3,3.5l-2.8,0.5l-4.5,8.3l8.5,3.1l2.5-1.3l1.8,1l3.8,4h3.5l0.5-0.8l2.8,1.3l2,0.3l1.5-2l17.9,4l3.8-0.3l6.3-5.8
	l1.8-2.5l3-1l3.5-0.3l2.5,1.5h3l1.5-6.3l1.5-0.8l1-1.3l0.5-3.3l3.8-8.8l3-0.8l1-3l0.3-3.5l5.6-0.3l0.3-3.5l9.1-6.6l3.5-5.6l10.4-7.1
	l2.3-2.5l3.8-2.3l0.5-3l0.3-0.3l1.3-0.8l0.5-3.5l1.3-2.5l0.3-3.5l5.6-6.8l1.8-0.3l8.1-10.9l0.3-3.8l4-5.1l0.8-3l-2.3-1.8
	L380.4,719.2L380.4,719.2z"/>
<path id="path2891" sodipodi:nodetypes="cssssssssscssssssscssssssssssssssssssssssscsssssssssssssssscssssssssscscsscscsssssssssssssssssssssssssssssssssssssssssssssccssssssscssssscsssccssscscsscssscsssssscsssssssssscsssssssssssscsssssssssscsssssssssscsssssssssssscssssssssscssscssssssssscsssssssssssssssssssssssccsssssssssssssssssssssscssssssssssscsssssssssssscsscssssssssssssssssscsssscsscsssssssssssssscssssssssssssssscsssssssssssssssssssc" class="st3" d="
	M380.3,719.3l0.3,0.4l2.3,1.8l-0.8,3l-4,5.1l-0.3,3.8l-8.1,10.9l-1.8,0.3l-5.6,6.8l-0.3,3.5l-1.3,2.5l-0.5,3.5l-1.3,0.8l-0.3,0.3
	l-0.5,3L342,776.8l-3.5,5.6l-9.1,6.6l-0.3,3.5l-5.6,0.3l-0.3,3.5l-1,3l-3,0.8l-3.8,8.8l-0.5,3.3l-1,1.3l-1.5,0.8l-1.5,6.3h-3
	l-2.5-1.5l-3.5,0.3l-3,1l-8.1,8.3l-3.8,0.3l-10.1-3.3l-7.8-0.8l-1.5,2l-2-0.3l-2.8-1.3l-0.5,0.8h-3.5l-3.8-4l-1.8-1l-2.5,1.3
	l-8.4-3.2l-1.7,0.7l-3.2,3l1.2,1.4l0.8,4.2l3,6.3v1.9h0.7l0.3-1.6l0.6-1.3l1.9-0.1l2.1,5.1l-0.3,1.6l-1.9,0.3l-1.4-0.9l-0.8-1.3
	l-0.4,0.9l0.1,1.8l0.8,2.3l0.1,1.8l1.8,3.4v1.4l8.9,21.1l0.2,1.8l1.5,3.4l1.4,1.8l3.1,6.6l2.9-2.9l8.2-2.1l3.2,2.1l2.1-1.4l3.9-0.7
	l1.1-4.3l1.4-1.8l2.1,5l-0.7,4.6l-2.1,3.2l-1.1,4.3l-2.9,1.8l2.1,3.9l4.6,4.3l-1.8,3.6v1.1l4.6,2.5l-1.8,7.5l-1.4,2.9l-3.2,1.1
	l0.7,1.8l2.9,0.4v1.8l-4.6,1.4v3.6l4.6-0.4l4.6,0.7l5-0.4l2.5,1.4l3.2,3.9l1.8,3.6v5l-8.9,8.6l-1.5,3.3l6.8,5.6l1.8,0.8l2.8,2.5
	l5.4,1.6l0.3-0.6l-0.9-14.5l0.9-2.9l0.9-1.1l1.8,0.4l2.5-2.2l2-5.8l0.3-3.5l1.8-6.1V924l-3.5-4.3l0.3-18.2l2-6.1l1.8-2.3l1.8-6.8
	l-0.3-4.5l0.8-1.3l-0.3-15.2l1.3-2.8l0.5-3.3l1.3-2.5l1.5-9.8l2.5-1.3l1.8,0.8l4.5,0.3l1.5,2.3h3.8l2.8-1.3l6.1,1.5l3.5-0.3l2.3-1.8
	l2.5-3.3l0.3-1.3l4-3.3l1.3-0.5l6.6-4.5l3.5-0.3l2.8-2l3-0.8l3,1.3l1.8,2v3.8l2.8,1.3h2.8l1-1l3-0.8l3.3-4.8l3-0.8h3.8l8.6,5.3
	l6.3,7.6l2.8,1.5l2.8-1.5l1.8-2.3l5.1-2.5l1.5-2.3h3.3l1,0.3l2.5,1.3l0.3,1.3l2.3-0.8l4.5,3l0.7-6.8l-2.9-3.9l-5.4-0.4l-2.9-8.6
	l0.4-5l-1.4-1.4l-1.8-3.9v-5.4l1.1-4.3l10-12.9l0.7-1.8V785l6.4-4.6l-1.4-4.3l-2.5-2.5l1.8-4.3l3.6-3.9l-1.1-22.5l3.2-2.1l2.1-5
	l3.6-1.8l-1.1-3.9v-3.9l1.4-3.9l-0.4-1.8l-1.1-0.7l2.9-3.6l3.6-1.4l6.8-5.7l5-6.4h3.9l7.9-2.1l2.9-2.9l8.5-3.6l0.8-3l-0.3-3.5
	l-15.4-10.6l-3-0.8l1-3.5l1.8-2.5l3.3-1l-0.5-2.3l1.5-2.3l3.3-0.5l1.5-2.3v-7.1l-2.3-1.5l-0.6-1.7l-0.9-0.3l-1.3-6.3L487,643h-0.5
	l-9.9-2.8l-1,0.3l-2.5,1.3l-6.6,1l-2.3,1.5l-6.3,1.3l-4.3,3.5l-1.5,2.5l-2.8,1.3l-2.3,1.8l-3.3,0.5l-2.3,2.5l-1.8,4.3l-1.8,1.5
	l-1,2.8l-1.8,2l-0.3,3.5l-2.8,1h-3.8l-2,2l-1.5,2.5l-4,4l-7.1,0.5l-2.3,5.8l-5.1,2.5l-1,2.8l-6.6,0.5l-1.3,6.6l-8.1-0.3l-2.3-2
	l-7.8-0.3l-1.3,11.6l1.3,2.8l2,2.5v3.8L380.3,719.3L380.3,719.3z"/>
<path id="path2887" sodipodi:nodetypes="cssssssssssscssssssssssssscsssssssssssssssssscsssssscssssssscssssscsssccssscscsscssscssssssc" class="st3" d="
	M292.8,953.7l-1.5-0.8l-3.9-3.3l-0.6-1.4l-2.3-2.5l-1.4-0.8l-3.3-3.5l-0.6-0.1l-3.3,0.1l-1.6-0.4v-0.6l0.5-0.7l2.7-0.5l-2.8-4.5
	l-1-1l-0.7-1.4l-1-1.1l-1.1-0.8l-1.3-1.8l-0.6-1.4l-2.7-2.6l-1.3-3.4l-1.5-0.8l-0.8-1.1l1.1-0.8l0.1-1.9l-0.9-1v-1.9l-0.9-1.4
	l-2.8-2.5l-0.5-1.8l0.5-1.6l0.3-4.2l4-3.9l-2.5-6.1l3.9,3.9l2.1-2.5l-4.5-5.6l-1.7-3.8l2.9-2.9l8.2-2.1l3.2,2.1l2.1-1.4l3.9-0.7
	l1.1-4.3l1.4-1.8l2.1,5l-0.7,4.6l-2.1,3.2l-1.1,4.3l-2.9,1.8l2.1,3.9l4.6,4.3l-1.8,3.6v1.1l4.6,2.5l-1.8,7.5l-1.4,2.9l-3.2,1.1
	l0.7,1.8l2.9,0.4v1.8l-4.6,1.4v3.6l4.6-0.4l4.6,0.7l5-0.4l2.5,1.4l3.2,3.9l1.8,3.6v5l-8.9,8.6L292.8,953.7L292.8,953.7z"/>
<path id="path2899" sodipodi:nodetypes="cssssscssssssssssscssssssssssssssssssssssssssssscsscsssssssssssssscsssssssssssssssssssssssssc" class="st3" d="
	M206.3,776l0.3,1.6l-0.3,1.8l4.7,2.8l0.9,0.3l1.8,1.6l3.2,1.7l3.9,4.2l1.5,0.8l5.3,4.9l0.1,0.5l3.4,3.3l2.4,3.7l1.6-0.4l2.3-2.1
	l1.4-0.8l-1,2.2l-0.9,1.1v1.3l3.3,0.9l-1.7,1.4l-1.9-0.1l-1-1.4l-0.9-0.5l0.8,1.9l1.2,1.5l0.5,1.7l-0.5,9.6l-0.5,1.4l1,2l1.3-0.8
	l2-2l1.5-0.6l4.5-8.3l2.8-0.5l0.3-3.5l2.8-1.3h3.8l3.3-8.3l-7.3-9.3l-3.8-2.5l5.3-7.6l3.3-1.3l2-2.5l-1.5-2.5l-6.3-2.8l-2.5,1.3
	l-3-0.5l-0.5-2.8l-6.8,0.3l-0.8-3l-1-1l-20,1.8l-3,2l-5.6,6.3L206.3,776L206.3,776z"/>
</svg>
